<?xml version="1.0" encoding="UTF-8" standalone="no"?>
<!-- Created with Inkscape (http://www.inkscape.org/) -->

<svg
   width="226.25101mm"
   height="126.6mm"
   viewBox="0 0 226.251 126.6"
   version="1.1"
   id="svg1"
   xml:space="preserve"
   inkscape:version="1.4 (e7c3feb1, 2024-10-09)"
   sodipodi:docname="remote-ssh-rationale.svg"
   xmlns:inkscape="http://www.inkscape.org/namespaces/inkscape"
   xmlns:sodipodi="http://sodipodi.sourceforge.net/DTD/sodipodi-0.dtd"
   xmlns:xlink="http://www.w3.org/1999/xlink"
   xmlns="http://www.w3.org/2000/svg"
   xmlns:svg="http://www.w3.org/2000/svg"><sodipodi:namedview
     id="namedview1"
     pagecolor="#000000"
     bordercolor="#000000"
     borderopacity="0.25"
     inkscape:showpageshadow="2"
     inkscape:pageopacity="0.0"
     inkscape:pagecheckerboard="0"
     inkscape:deskcolor="#d1d1d1"
     inkscape:document-units="mm"
     inkscape:zoom="1.0482005"
     inkscape:cx="544.26611"
     inkscape:cy="278.09565"
     inkscape:current-layer="layer1"
     inkscape:export-bgcolor="#ffffff00" /><defs
     id="defs1"><marker
       style="overflow:visible"
       id="ConcaveTriangle"
       refX="0"
       refY="0"
       orient="auto-start-reverse"
       inkscape:stockid="Concave triangle arrow"
       markerWidth="1"
       markerHeight="1"
       viewBox="0 0 1 1"
       inkscape:isstock="true"
       inkscape:collect="always"
       preserveAspectRatio="xMidYMid"><path
         transform="scale(0.7)"
         d="M -2,-4 9,0 -2,4 c 2,-2.33 2,-5.66 0,-8 z"
         style="fill:context-stroke;fill-rule:evenodd;stroke:none"
         id="path8" /></marker><style
       type="text/css"
       id="style1">
   <![CDATA[
    .fil16 {fill:black}
    .fil13 {fill:#B8B8D9}
    .fil1 {fill:#DF8377}
    .fil12 {fill:#E47E33}
    .fil14 {fill:#E4E4FF}
    .fil2 {fill:#F59D91}
    .fil7 {fill:#FF7373}
    .fil9 {fill:#FFA64D}
    .fil3 {fill:#FFB4A7}
    .fil8 {fill:#FFBEBE}
    .fil4 {fill:#FFC3B8}
    .fil10 {fill:#FFCC7E}
    .fil5 {fill:#FFD5C8}
    .fil6 {fill:#FFE4D9}
    .fil11 {fill:#FFF1CC}
    .fil15 {fill:#FFF1E4}
    .fil0 {fill:white}
   ]]>
  </style><filter
       id="filter0_d"
       x="-8.3941097"
       y="15.8291"
       width="116.727"
       height="92.245598"
       filterUnits="userSpaceOnUse"
       color-interpolation-filters="sRGB"><feFlood
         flood-opacity="0"
         result="BackgroundImageFix"
         id="feFlood6" /><feColorMatrix
         in="SourceAlpha"
         type="matrix"
         values="0 0 0 0 0 0 0 0 0 0 0 0 0 0 0 0 0 0 127 0"
         id="feColorMatrix6" /><feOffset
         id="feOffset6" /><feGaussianBlur
         stdDeviation="4.16667"
         id="feGaussianBlur6" /><feColorMatrix
         type="matrix"
         values="0 0 0 0 0 0 0 0 0 0 0 0 0 0 0 0 0 0 0.25 0"
         id="feColorMatrix7" /><feBlend
         mode="overlay"
         in2="BackgroundImageFix"
         result="effect1_dropShadow"
         id="feBlend7" /><feBlend
         mode="normal"
         in="SourceGraphic"
         in2="effect1_dropShadow"
         result="shape"
         id="feBlend8" /></filter><filter
       id="filter1_d"
       x="60.416698"
       y="-8.0755796"
       width="47.916698"
       height="116.151"
       filterUnits="userSpaceOnUse"
       color-interpolation-filters="sRGB"><feFlood
         flood-opacity="0"
         result="BackgroundImageFix"
         id="feFlood8" /><feColorMatrix
         in="SourceAlpha"
         type="matrix"
         values="0 0 0 0 0 0 0 0 0 0 0 0 0 0 0 0 0 0 127 0"
         id="feColorMatrix8" /><feOffset
         id="feOffset8" /><feGaussianBlur
         stdDeviation="4.16667"
         id="feGaussianBlur8" /><feColorMatrix
         type="matrix"
         values="0 0 0 0 0 0 0 0 0 0 0 0 0 0 0 0 0 0 0.25 0"
         id="feColorMatrix9" /><feBlend
         mode="overlay"
         in2="BackgroundImageFix"
         result="effect1_dropShadow"
         id="feBlend9" /><feBlend
         mode="normal"
         in="SourceGraphic"
         in2="effect1_dropShadow"
         result="shape"
         id="feBlend10" /></filter><linearGradient
       id="paint0_linear"
       x1="49.939201"
       y1="0.25781199"
       x2="49.939201"
       y2="99.742302"
       gradientUnits="userSpaceOnUse"><stop
         stop-color="white"
         id="stop10" /><stop
         offset="1"
         stop-color="white"
         stop-opacity="0"
         id="stop11" /></linearGradient><linearGradient
       inkscape:collect="always"
       xlink:href="#paint0_linear"
       id="linearGradient386"
       gradientUnits="userSpaceOnUse"
       x1="49.939201"
       y1="0.25781199"
       x2="49.939201"
       y2="99.742302" /><linearGradient
       inkscape:collect="always"
       xlink:href="#paint0_linear"
       id="linearGradient398"
       gradientUnits="userSpaceOnUse"
       x1="49.939201"
       y1="0.25781199"
       x2="49.939201"
       y2="99.742302" /></defs><g
     inkscape:label="Layer 1"
     inkscape:groupmode="layer"
     id="layer1"
     transform="translate(-29.239905,-17.117231)"><rect
       style="font-variation-settings:normal;opacity:1;fill:#f4e3d7;fill-opacity:1;fill-rule:evenodd;stroke:#808080;stroke-width:1;stroke-linecap:butt;stroke-linejoin:miter;stroke-miterlimit:4;stroke-dasharray:none;stroke-dashoffset:0;stroke-opacity:1;stop-color:#000000;stop-opacity:1"
       id="rect4"
       width="49.726093"
       height="40.639091"
       x="199.91405"
       y="30.290007"
       ry="5"
       rx="5" /><rect
       style="font-variation-settings:normal;opacity:1;fill:#f4e3d7;fill-opacity:1;fill-rule:evenodd;stroke:#808080;stroke-width:1;stroke-linecap:butt;stroke-linejoin:miter;stroke-miterlimit:4;stroke-dasharray:none;stroke-dashoffset:0;stroke-opacity:1;stop-color:#000000;stop-opacity:1"
       id="rect398"
       width="49.726093"
       height="40.639091"
       x="199.91405"
       y="93.790001"
       ry="5"
       rx="5" /><g
       style="clip-rule:evenodd;fill-rule:evenodd;image-rendering:optimizeQuality;shape-rendering:geometricPrecision;text-rendering:geometricPrecision"
       id="g1"
       transform="matrix(0.00268661,0,0,0.00268661,32.521322,37.952933)"><g
         id="__x0023_Layer_x0020_1"
         inkscape:label="__x0023_Layer 1"
         inkscape:groupmode="layer">
  <metadata
   id="CorelCorpID_0Corel-Layer" />
  <g
   id="hand0035.ai">
   <g
   id="g187">
    <polygon
   class="fil0"
   points="12570,8031 12616,7725 12570,7377 12453,7046 8739,147 8597,4 8106,122 6937,377 4904,801 3362,1127 4556,9154 4720,9364 4950,9385 12126,8450 12381,8312 "
   id="polygon1" />
    <polygon
   class="fil1"
   points="2305,4506 1995,4556 1752,4640 729,5051 0,5432 0,3579 1274,3240 1723,3072 2850,2439 2435,2381 2062,2205 1060,2217 0,2372 0,734 1148,1056 2259,1107 2754,1039 4070,822 5005,1094 5608,1614 5625,2050 5403,1874 5248,1672 4887,1366 4388,1283 4284,1329 4099,1438 3709,1563 3563,1731 3466,2674 "
   id="polygon2" />
    <polygon
   class="fil2"
   points="3026,4485 2171,4556 1936,4556 1685,4573 1354,4673 889,4984 654,5005 0,5273 0,3617 1693,3173 3525,2226 4246,2146 5218,2263 5616,2771 5801,3144 5382,3123 4946,3190 4992,3366 5637,3395 6052,3424 6124,3600 6006,3688 5440,3747 4946,3785 4447,3948 3844,4263 "
   id="polygon3" />
    <polygon
   class="fil2"
   points="1215,1211 0,918 0,2050 440,2100 1169,1983 1957,1974 2532,2263 3018,2343 3554,2050 3584,1718 3755,1505 3806,1320 4116,1320 4313,1203 4632,1283 4917,1291 5063,1534 5336,1786 5587,2033 5839,2079 5822,1739 4896,910 3437,834 2045,1182 "
   id="polygon4" />
    <polygon
   class="fil3"
   points="4506,2695 4946,2636 5176,2557 4401,2020 3747,2058 2766,2498 1819,3173 1832,3705 2016,3764 2083,3248 2444,3114 2980,2762 3504,2519 3223,2859 3542,2850 3299,3026 2921,3131 2561,3336 2523,3395 2938,3357 3144,3336 2833,3542 3253,3462 3659,3328 3961,3026 4158,2850 "
   id="polygon5" />
    <polygon
   class="fil3"
   points="4225,3571 4284,3475 4749,3181 5235,3056 5549,3072 6308,3190 6413,3152 6501,3056 6463,2947 5939,2557 5440,2351 5176,2372 4849,2724 4313,2955 4166,2976 3982,3160 3814,3357 3688,3403 3076,3483 2377,3559 2200,3726 1861,3676 742,3366 0,3571 0,4933 771,4690 771,4409 633,4196 499,4087 411,3940 411,3823 1111,4078 1274,4468 1442,4514 2033,4351 2863,4388 3466,4309 3961,4154 4644,3864 5227,3659 5809,3659 6044,3630 6124,3559 6065,3424 5101,3403 4778,3403 4460,3559 "
   id="polygon6" />
    <polygon
   class="fil3"
   points="1526,1425 1861,1337 2079,1379 2125,1618 2247,1651 2326,1957 2808,2255 3240,2221 3810,1949 4179,1966 4686,1957 4967,1798 4757,1773 4598,1811 3957,1819 3617,1790 3160,1601 2842,1538 2951,1459 3185,1417 3362,1337 3617,1555 3659,1475 3722,1153 3940,1232 4170,1211 4334,1090 4556,1203 4749,1249 4950,1216 5080,1467 5352,1651 5503,1878 5705,2045 5855,2092 5914,2020 5834,1685 5927,1685 6002,1614 5705,1073 4933,511 3714,536 3009,897 2309,1161 1169,1169 0,809 0,1073 289,1161 738,1211 1018,1329 1060,1467 0,1413 0,1790 423,1811 1065,1765 1421,1827 1911,1907 1844,1601 "
   id="polygon7" />
    <polygon
   class="fil4"
   points="5134,3387 5093,3475 5206,3525 5495,3609 5692,3579 5881,3626 6086,3617 6132,3554 6132,3466 5591,3403 "
   id="polygon8" />
    <polygon
   class="fil4"
   points="4787,3571 4657,3588 4590,3722 4673,3756 4824,3655 "
   id="polygon9" />
    <polygon
   class="fil4"
   points="3571,3814 3994,3848 4514,3814 4414,3890 4057,3952 3491,4279 2913,4242 2800,4074 3097,3915 "
   id="polygon10" />
    <polygon
   class="fil4"
   points="5357,1593 5516,1857 5709,2016 5889,2071 5897,1987 5805,1706 5554,1446 5181,981 5030,842 5168,842 5302,1019 5600,1216 5709,1471 5851,1622 5960,1668 6002,1605 5843,1316 5700,1073 5189,562 4694,495 4187,553 3688,591 2863,960 2213,1136 1379,1127 0,754 0,1035 486,1102 893,1211 1195,1324 1287,1324 1714,1270 2175,1270 2745,1203 3257,1035 3613,859 3697,914 3688,972 3584,1102 3441,1216 3563,1232 3688,1127 3911,1073 4116,1102 4359,1035 4703,1174 4992,1203 5134,1446 "
   id="polygon11" />
    <polygon
   class="fil4"
   points="4967,1798 4854,1802 4573,1882 4200,1957 3651,1882 3219,1995 3219,2087 3332,2171 2863,2431 2372,2724 1593,3144 0,3596 0,4137 197,4342 457,4309 503,4225 373,3932 373,3831 570,3776 1148,4015 1304,4015 1446,3831 1605,3885 1781,4053 1886,4020 1949,3969 1978,3533 1987,3223 2087,3114 2397,3076 2938,2703 3408,2498 3621,2276 3781,2125 3806,2163 3676,2414 3688,2511 3873,2481 4238,2574 4506,2557 4770,2594 5030,2557 5281,2397 5424,2406 5616,2527 5868,2666 5508,2574 5227,2594 4954,2674 4397,2909 4581,2900 4443,3068 4489,3169 4686,3169 5105,3047 5264,3014 5340,2976 5235,2842 5382,2854 5684,2976 6216,3106 6430,3144 6497,3060 6438,2930 6409,2796 5918,2460 5411,2230 5260,2184 5243,2016 5160,1895 "
   id="polygon12" />
    <polygon
   class="fil5"
   points="6065,3403 5629,3403 5302,3403 5168,3441 5357,3487 5516,3517 5692,3517 5851,3579 6119,3563 6132,3479 "
   id="polygon13" />
    <polygon
   class="fil5"
   points="222,4112 411,4137 319,3869 352,3684 1262,3936 1438,3512 1538,3433 1555,3722 1781,3990 1895,3969 1941,3571 1903,3282 1970,3123 2305,3009 2791,2636 3076,2460 3517,2314 3760,2100 3864,2117 3735,2385 3776,2469 3973,2473 4263,2544 4535,2481 5160,2397 5311,2305 5424,2305 5646,2498 5981,2636 6207,2771 5449,2553 5181,2557 4778,2771 4598,2863 4879,2800 5243,2741 5508,2871 5998,2984 6337,3085 6484,3076 6497,2955 6400,2880 6384,2750 6195,2553 5440,2192 5281,2171 5172,2117 5172,1920 4937,1836 4665,1882 4703,2004 3844,1957 3500,2079 2863,2444 1932,2955 1530,3152 0,3588 0,3839 "
   id="polygon14" />
    <polygon
   class="fil5"
   points="5151,721 5419,1056 5637,1199 5813,1534 5964,1660 6002,1605 5734,1086 5428,801 5151,503 5021,461 4418,503 3915,495 3621,557 3181,813 2536,1060 2003,1127 1195,1111 0,759 0,943 440,1031 805,1140 1174,1287 1362,1278 1945,1216 2615,1165 2838,1077 3198,943 3613,713 3730,713 3906,847 4154,893 4623,943 4958,1056 5415,1589 5646,1886 5763,2004 5902,2075 5902,2012 5725,1660 5399,1228 5055,847 4518,750 4686,641 4992,633 "
   id="polygon15" />
    <polygon
   class="fil6"
   points="6082,3424 5956,3391 5587,3399 5285,3424 5373,3441 5700,3479 5931,3479 "
   id="polygon16" />
    <polygon
   class="fil6"
   points="6455,2930 6513,3018 6467,3081 6249,3026 5922,2880 5508,2833 5340,2720 5168,2674 4791,2787 5231,2561 5524,2561 6161,2762 "
   id="polygon17" />
    <polygon
   class="fil6"
   points="5277,2242 5499,2297 5570,2402 5738,2506 5994,2586 6249,2762 6346,2850 6371,2720 6187,2540 5508,2213 5134,2138 5109,2188 4514,2305 4154,2213 4267,2171 4598,2163 4958,2188 5072,2163 5072,2108 5000,2029 3844,1957 3525,2050 2812,2452 1609,3127 536,3416 0,3567 0,3705 239,3638 1102,3722 1404,3391 1706,3194 1593,3680 1836,3957 1844,3609 1827,3211 1945,3047 2393,2880 2976,2452 3466,2242 3789,2037 3915,2100 3969,2234 3827,2364 3864,2418 4003,2418 4217,2481 4497,2444 4782,2364 "
   id="polygon18" />
    <polygon
   class="fil6"
   points="5684,1174 5826,1450 5922,1547 5943,1492 5730,1086 5453,838 5155,503 5030,461 4615,486 4225,486 3802,478 3626,541 3123,788 2724,981 2414,1044 1672,1086 1329,1069 956,998 486,863 0,725 0,876 662,1044 1178,1253 1647,1211 2360,1165 2766,1069 3148,884 3483,708 3714,637 4032,796 4305,863 4703,926 4996,1031 5235,1308 5508,1614 5696,1890 5851,2029 5914,2020 5604,1492 5147,943 5005,822 4439,629 4686,591 5055,591 5331,847 "
   id="polygon19" />
    <polygon
   class="fil7"
   points="6128,3475 6082,3416 5834,3420 5826,3529 5868,3592 6119,3567 "
   id="polygon20" />
    <polygon
   class="fil7"
   points="6249,2833 6262,2972 6312,3043 6497,3072 6492,2968 "
   id="polygon21" />
    <polygon
   class="fil7"
   points="6396,2859 6396,2758 6275,2657 6275,2775 "
   id="polygon22" />
    <polygon
   class="fil7"
   points="5776,1786 5734,1832 5780,1907 5889,2054 5914,1999 "
   id="polygon23" />
    <polygon
   class="fil7"
   points="5973,1639 5990,1576 5868,1404 5868,1501 "
   id="polygon24" />
    <polygon
   class="fil7"
   points="4787,1999 5009,2033 5143,2071 5105,1962 4988,1907 4787,1907 "
   id="polygon25" />
    <polygon
   class="fil8"
   points="6136,3508 5834,3517 5834,3458 6115,3450 "
   id="polygon26" />
    <polygon
   class="fil8"
   points="6505,2988 6254,2875 6262,2947 6513,3030 "
   id="polygon27" />
    <polygon
   class="fil8"
   points="6396,2750 6275,2632 6283,2712 6413,2804 "
   id="polygon28" />
    <polygon
   class="fil8"
   points="4778,1970 5109,2008 5126,2071 4904,2024 4808,2016 "
   id="polygon29" />
    <polygon
   class="fil8"
   points="5906,1953 5805,1777 5767,1815 5906,2016 "
   id="polygon30" />
    <polygon
   class="fil8"
   points="5990,1555 5881,1383 5872,1446 6019,1622 "
   id="polygon31" />
    <polygon
   class="fil9"
   points="4346,620 4233,625 4208,495 4334,503 "
   id="polygon32" />
    <polygon
   class="fil10"
   points="4334,486 4326,411 4233,377 4191,511 "
   id="polygon33" />
    <polygon
   class="fil11"
   points="4317,432 4284,365 4187,419 4254,474 "
   id="polygon34" />
    <polygon
   class="fil12"
   points="4363,650 4200,658 4200,578 4346,549 "
   id="polygon35" />
    <polygon
   class="fil12"
   points="377,3642 377,3768 432,3864 423,3961 465,4015 528,3999 616,4108 704,4150 822,4305 897,4594 901,4887 1207,4757 1211,4439 1182,4258 1132,4057 1111,3961 1127,3864 1090,3739 901,3504 792,3458 763,3416 637,3362 231,3512 "
   id="polygon36" />
    <polygon
   class="fil9"
   points="780,3454 377,3605 335,3546 721,3420 "
   id="polygon37" />
    <polygon
   class="fil9"
   points="750,4162 1107,4049 1203,4351 901,4468 796,4246 "
   id="polygon38" />
    <polygon
   class="fil9"
   points="641,4070 742,4082 637,3986 478,3701 520,3647 788,3542 876,3609 1048,3839 1006,3919 817,4041 1056,3952 1115,3864 1056,3764 847,3500 738,3500 428,3630 423,3739 "
   id="polygon39" />
    <polygon
   class="fil10"
   points="591,3952 428,3701 444,3626 792,3496 876,3546 1107,3852 1073,3940 918,3999 1035,3915 1048,3823 851,3554 775,3533 482,3642 474,3718 "
   id="polygon40" />
    <polygon
   class="fil10"
   points="1132,4103 784,4233 868,4409 1199,4296 "
   id="polygon41" />
    <polygon
   class="fil11"
   points="1182,4217 834,4355 809,4288 1161,4154 "
   id="polygon42" />
    <polygon
   class="fil11"
   points="767,3529 478,3634 457,3701 457,3626 767,3504 855,3525 1107,3864 830,3542 "
   id="polygon43" />
    <polygon
   class="fil13"
   points="834,3579 763,3567 524,3655 511,3714 650,3978 750,4007 930,3952 1002,3902 1018,3818 "
   id="polygon44" />
    <polygon
   class="fil14"
   points="951,3919 746,3978 666,3965 524,3718 566,3672 763,3605 822,3617 981,3827 985,3890 "
   id="polygon45" />
    <polygon
   class="fil0"
   points="608,3651 767,3651 981,3806 830,3609 746,3592 "
   id="polygon46" />
    <polygon
   class="fil15"
   points="0,842 1337,1165 1685,1157 2393,1115 2775,1031 3240,796 2653,1002 2330,1069 1345,1077 0,721 "
   id="polygon47" />
    <polygon
   class="fil15"
   points="4841,914 4208,750 4070,645 4217,595 4196,490 3818,482 3663,520 3550,625 3802,557 3898,679 4116,788 "
   id="polygon48" />
    <polygon
   class="fil15"
   points="5700,1136 5868,1404 5751,1115 5491,876 5344,713 5172,516 5067,461 4351,490 4342,574 5084,545 5160,595 5285,742 5566,1019 "
   id="polygon49" />
    <polygon
   class="fil15"
   points="5491,1538 5675,1798 5742,1895 5742,1836 5671,1672 5461,1404 5260,1157 5151,972 5076,935 4979,930 5009,981 5134,1086 5210,1220 "
   id="polygon50" />
    <polygon
   class="fil15"
   points="4003,1983 3860,1991 3936,2050 4196,2087 4766,2087 4883,2087 4921,2041 "
   id="polygon51" />
    <polygon
   class="fil15"
   points="3965,2351 4158,2414 4388,2406 4690,2351 4430,2347 4175,2272 4032,2289 "
   id="polygon52" />
    <polygon
   class="fil15"
   points="5491,2251 5663,2414 6136,2603 6275,2687 6283,2641 6187,2540 5616,2272 "
   id="polygon53" />
    <polygon
   class="fil15"
   points="5994,2737 5499,2620 5352,2636 5461,2754 5616,2791 5767,2800 6115,2871 6254,2926 6245,2842 "
   id="polygon54" />
    <polygon
   class="fil15"
   points="6086,3412 5994,3382 5742,3391 5520,3399 5671,3437 5847,3437 5960,3412 "
   id="polygon55" />
    <polygon
   class="fil0"
   points="7779,4472 6472,704 6191,775 7473,4543 "
   id="polygon56" />
    <polygon
   class="fil0"
   points="6145,4682 5910,3890 6145,3655 6375,4355 6702,4355 6425,3303 6539,3093 6539,2951 6425,2859 6308,2603 6073,2368 5956,1781 6073,1689 6073,1547 5885,1199 5956,868 7100,4569 "
   id="polygon57" />
    <polygon
   class="fil0"
   points="5818,4707 5654,4170 5348,4191 5491,4753 "
   id="polygon58" />
    <polygon
   class="fil0"
   points="5160,4824 5067,4569 4740,4590 4812,4870 "
   id="polygon59" />
    <polygon
   class="fil0"
   points="5373,6086 5210,5269 4858,5269 5046,6111 "
   id="polygon60" />
    <polygon
   class="fil0"
   points="6098,5738 6052,5575 5558,5549 5654,5759 "
   id="polygon61" />
    <polygon
   class="fil0"
   points="7570,5855 7264,4963 6891,5059 7151,5948 "
   id="polygon62" />
    <polygon
   class="fil0"
   points="8177,5596 7871,4803 7498,4942 7851,5713 "
   id="polygon63" />
    <polygon
   class="fil0"
   points="5767,7515 5512,6555 5185,6581 5302,7490 "
   id="polygon64" />
    <polygon
   class="fil0"
   points="6492,7423 6212,6484 5793,6555 6119,7444 "
   id="polygon65" />
    <polygon
   class="fil0"
   points="7264,7306 6962,6392 6564,6463 6819,7377 "
   id="polygon66" />
    <polygon
   class="fil0"
   points="7943,7071 7570,6111 7243,6228 7545,7163 "
   id="polygon67" />
    <polygon
   class="fil0"
   points="8856,7306 8341,6019 8014,6136 8408,7398 "
   id="polygon68" />
    <polygon
   class="fil0"
   points="6589,7607 6098,7679 5348,7633 5466,7867 6425,7842 6681,7796 "
   id="polygon69" />
    <polygon
   class="fil0"
   points="8060,7377 7335,7490 6773,7586 6891,7750 7310,7750 8152,7586 "
   id="polygon70" />
    <polygon
   class="fil0"
   points="7545,377 7125,402 7218,637 7616,520 "
   id="polygon71" />
    <polygon
   class="fil0"
   points="7989,1501 7662,683 7335,801 7662,1597 "
   id="polygon72" />
    <polygon
   class="fil0"
   points="8550,2674 8106,1760 7779,1945 8177,2766 "
   id="polygon73" />
    <polygon
   class="fil0"
   points="9112,4007 8622,2951 8295,3068 8693,4124 "
   id="polygon74" />
    <polygon
   class="fil0"
   points="9577,5151 9204,4334 8831,4451 9250,5294 "
   id="polygon75" />
    <polygon
   class="fil0"
   points="7754,377 8525,918 12151,6928 8643,193 8316,193 "
   id="polygon76" />
    <polygon
   class="fil14"
   points="4787,3793 4296,4028 3898,4355 4296,4334 4531,3982 5093,4007 5675,3864 6027,3676 5491,3772 "
   id="polygon77" />
    <polygon
   class="fil14"
   points="12478,7163 5046,8894 4669,9083 4694,9292 4883,9385 12034,8475 12335,8358 12595,8006 12595,7540 "
   id="polygon78" />
    <polygon
   class="fil14"
   points="4225,4263 4414,5294 4556,5294 4556,4917 4648,4543 4367,4426 4346,4145 "
   id="polygon79" />
    <polygon
   class="fil14"
   points="9649,7423 9766,7352 6916,612 "
   id="polygon80" />
    <polygon
   class="fil14"
   points="9439,5922 10256,6907 9883,7163 10445,6954 9883,5596 "
   id="polygon81" />
    <polygon
   class="fil14"
   points="4648,5457 4485,5642 4623,6601 4975,6601 4833,6275 "
   id="polygon82" />
    <polygon
   class="fil14"
   points="4929,6882 4720,7000 4929,8567 5256,8592 7100,8077 9020,7633 8714,7444 7360,7867 5512,7985 5114,8333 "
   id="polygon83" />
    <polygon
   class="fil14"
   points="6819,6228 5491,6463 4883,6438 5093,6203 6212,6136 7197,5994 8177,5784 7989,5969 "
   id="polygon84" />
    <polygon
   class="fil14"
   points="4740,5197 4929,4942 5864,4896 6773,4732 7662,4543 7851,4732 6891,4963 6702,5080 5654,5222 5046,5248 "
   id="polygon85" />
    <polygon
   class="fil16"
   points="8542,3282 8442,3382 8383,3336 "
   id="polygon86" />
    <polygon
   class="fil16"
   points="4950,6090 4942,5922 4791,6187 4791,6061 4921,5763 4887,5512 4740,5797 4720,5667 4845,5403 4791,5319 4782,5193 4623,5575 4770,6610 4950,6601 4845,6534 5013,6145 "
   id="polygon87" />
    <polygon
   class="fil16"
   points="5407,7909 6090,7909 6610,7838 5956,7867 5386,7867 5344,7666 5101,7985 5130,7846 5290,7486 5235,7213 5034,7553 5034,7381 5193,7054 5088,6451 4921,6874 4845,6907 5101,8416 5818,8416 6430,8282 5763,8353 5206,8353 "
   id="polygon88" />
    <polygon
   class="fil16"
   points="5331,5520 5407,5533 5331,5361 "
   id="polygon89" />
    <polygon
   class="fil16"
   points="5554,5533 5491,5692 5428,5667 5428,5902 5491,5914 5491,6430 5575,6442 5533,6048 5616,5734 "
   id="polygon90" />
    <polygon
   class="fil16"
   points="5679,7042 5805,6643 5755,6400 5637,6706 "
   id="polygon91" />
    <polygon
   class="fil16"
   points="5914,7075 5872,7000 5847,6853 5713,7109 5742,7285 5805,7498 5805,7624 5985,7624 6019,7444 5956,7234 5860,7423 5839,7264 "
   id="polygon92" />
    <polygon
   class="fil16"
   points="6145,5755 6157,6006 5763,6069 6262,6040 "
   id="polygon93" />
    <polygon
   class="fil16"
   points="6702,7130 6597,7373 6576,7159 6652,6874 6597,6715 6484,6949 6484,6790 6526,6451 6472,6316 6333,6610 6354,6798 6417,6840 6451,6979 6484,7172 6534,7222 6597,7603 6660,7679 6727,8215 6778,8207 6882,7783 6840,7721 6811,7540 6727,7762 6694,7645 6757,7373 6736,7318 "
   id="polygon94" />
    <polygon
   class="fil16"
   points="6840,7762 7431,7700 7980,7616 7276,7771 6832,7859 "
   id="polygon95" />
    <polygon
   class="fil16"
   points="7243,7075 7188,7075 7180,6840 7075,6581 7033,6354 7146,6124 7188,6325 7201,6832 7297,6589 7360,6790 7306,7159 7339,7222 7423,6937 7486,7222 7465,7381 7306,7415 7306,7285 "
   id="polygon96" />
    <polygon
   class="fil16"
   points="6832,5026 6832,4921 6778,4950 6736,5235 6652,5248 6945,6270 7042,6270 7125,5868 7063,5826 7033,5721 6924,5935 6924,5776 7000,5457 6945,5428 6937,5331 6819,5554 6819,5403 6874,5118 "
   id="polygon97" />
    <polygon
   class="fil16"
   points="8001,6442 7951,6727 7939,6228 7867,6061 7813,6304 7758,6291 7758,6430 7855,6534 7897,6736 7909,6853 7980,6949 8064,7285 8182,7561 8236,7817 6937,8152 9141,7666 8563,6103 8467,6115 9016,7637 8932,7679 8320,7817 8341,7444 8257,7264 8182,7444 8194,7012 8119,6819 8043,7054 8064,6622 "
   id="polygon98" />
    <polygon
   class="fil16"
   points="8731,7415 8307,7561 8307,7477 "
   id="polygon99" />
    <polygon
   class="fil16"
   points="7758,5692 7695,5554 7645,5742 7674,5340 7603,5193 7528,5394 7515,4950 7452,4824 7381,5172 7444,5277 7708,6136 "
   id="polygon100" />
    <polygon
   class="fil16"
   points="7993,4812 8370,5935 8467,5902 8119,4937 8064,4929 "
   id="polygon101" />
    <polygon
   class="fil16"
   points="4757,3856 4569,3898 4351,4028 4409,4489 4585,4497 4489,4422 4606,4095 4979,4036 4636,4003 "
   id="polygon102" />
    <polygon
   class="fil16"
   points="4740,4879 4694,4736 4682,4518 4497,4908 4539,5327 4581,5315 "
   id="polygon103" />
    <polygon
   class="fil16"
   points="5214,3848 5658,3772 6048,3709 6149,3592 6145,3462 6052,3382 6128,3479 6103,3588 5998,3672 5637,3709 5101,3726 4694,3831 4120,4045 3651,4288 2984,4455 2599,4497 2121,4464 1832,4535 1245,4774 1253,4514 1207,4242 1136,4061 859,4196 1111,4141 1174,4296 1186,4418 880,4535 884,4648 1186,4552 1186,4661 893,4761 876,4925 863,4967 4,5378 4,5478 771,5114 834,5143 1127,5038 1211,4912 1941,4636 2385,4602 2888,4573 3282,4502 3764,4359 4288,4078 4678,3919 4979,3932 5051,4061 5088,4502 5155,4548 5197,4732 5239,4908 5231,5189 5331,5189 5449,4849 5365,4648 5298,4393 5264,4091 5151,4367 5139,4275 5218,3982 "
   id="polygon104" />
    <polygon
   class="fil16"
   points="5776,4376 5876,4740 5906,4858 5918,5181 5994,5176 6098,4803 6098,4707 6023,4548 5973,4384 5931,4187 5822,4393 5830,4292 5902,4066 5860,3982 5851,3860 5763,4112 5755,4003 5805,3730 5629,3768 5667,3932 5675,4045 5721,4066 "
   id="polygon105" />
    <polygon
   class="fil16"
   points="5038,4875 4673,4954 4694,4875 "
   id="polygon106" />
    <polygon
   class="fil16"
   points="5830,4808 5386,4908 5361,4816 "
   id="polygon107" />
    <polygon
   class="fil16"
   points="6949,4661 6019,4829 6078,4711 "
   id="polygon108" />
    <polygon
   class="fil16"
   points="6140,3307 6103,3382 6187,3387 6195,3525 6245,3546 6249,3785 6312,3827 6358,4061 6451,4313 6824,4309 6581,4275 6568,4066 6530,4011 6463,4225 6492,3873 6451,3756 6371,3898 6400,3563 6354,3491 6279,3638 6321,3374 6291,3206 6140,3202 "
   id="polygon109" />
    <polygon
   class="fil16"
   points="1132,3877 1123,3973 1048,4041 738,4154 616,4145 377,3818 348,3663 251,3588 0,3663 0,3533 184,3483 243,3424 520,3328 633,3349 1542,3118 2423,2649 3533,2024 3844,1920 4217,1949 5021,1999 5306,2150 5491,2171 6224,2536 6430,2754 6446,2880 6551,2984 6534,3127 6438,3215 6275,3223 6044,3215 5491,3156 5193,3185 5059,3236 5059,3349 5373,3370 5977,3387 5688,3416 5038,3395 4799,3378 4418,3462 4849,3185 5424,3043 6065,3127 6321,3177 6446,3139 6476,3051 6476,2955 6157,2804 5516,2611 5181,2603 4673,2842 4254,2976 4464,2762 4761,2716 5252,2515 5470,2506 6157,2737 6379,2850 6371,2754 6187,2561 5508,2255 5210,2196 4502,2335 4271,2263 5088,2171 4992,2066 4196,2008 3844,1999 3496,2121 2586,2628 1647,3156 780,3437 662,3387 310,3521 402,3626 394,3743 633,4095 750,4095 1073,3973 "
   id="polygon110" />
    <polygon
   class="fil16"
   points="704,3462 356,3596 394,3621 754,3487 880,3521 1107,3810 1081,3722 905,3500 792,3450 "
   id="polygon111" />
    <polygon
   class="fil16"
   points="708,4179 809,4346 863,4535 893,4736 868,4967 914,4812 914,4627 880,4443 809,4212 754,4200 "
   id="polygon112" />
    <polygon
   class="fil16"
   points="1039,3818 1039,3877 998,3911 1006,3835 817,3596 759,3584 536,3667 516,3718 625,3932 482,3718 490,3651 759,3542 851,3563 "
   id="polygon113" />
    <polygon
   class="fil16"
   points="666,3994 713,4020 763,4020 918,3961 733,4007 "
   id="polygon114" />
    <polygon
   class="fil16"
   points="415,3957 423,3864 444,3902 440,3978 465,3999 524,3986 549,4032 465,4036 "
   id="polygon115" />
    <polygon
   class="fil16"
   points="3743,2389 3831,2326 3994,2263 3823,2268 3630,2372 3315,2649 2314,3257 3290,2779 3655,2561 "
   id="polygon116" />
    <polygon
   class="fil16"
   points="3944,3118 4124,2980 4041,2951 3890,3039 3709,3265 3437,3416 3718,3320 3864,3257 "
   id="polygon117" />
    <polygon
   class="fil16"
   points="5218,1086 5147,972 5046,897 4640,834 4225,721 4070,645 4200,591 4170,507 3860,507 3680,549 3324,775 2745,1019 2372,1086 1320,1111 394,880 0,775 0,687 1044,989 1371,1060 2393,1052 2787,939 3739,482 3877,461 4170,461 4179,386 4275,360 4317,419 4242,419 4233,524 4263,587 4300,587 4334,557 4707,713 5130,792 5331,1102 5537,1224 5591,1425 5772,1622 6006,1693 5864,1727 5918,2037 5700,1647 5399,1278 "
   id="polygon118" />
    <polygon
   class="fil16"
   points="5390,729 5755,1086 5943,1467 6040,1605 5977,1702 5927,1693 5977,1597 5864,1379 5709,1102 5399,801 5147,524 5034,490 4372,516 4338,557 4217,524 4317,516 4326,402 4372,482 4602,474 5080,444 5202,499 "
   id="polygon119" />
    <polygon
   class="fil16"
   points="5164,1915 4942,1806 5164,1840 5122,1630 4887,1417 4632,1408 4577,1572 4476,1563 4447,1345 4284,1354 4015,1538 3802,1572 3634,1727 4024,1786 4715,1815 4007,1840 3592,1786 3315,1630 3064,1538 3265,1509 3315,1408 3412,1408 3533,1647 3688,1547 3730,1174 3827,1241 3802,1408 4095,1387 4267,1278 4292,1086 4485,1287 4862,1354 4950,1216 5009,1450 5210,1630 5315,1702 5470,1907 5675,2045 5830,2083 5478,2083 5453,1970 5323,1857 5269,2167 5227,2133 "
   id="polygon120" />
    <polygon
   class="fil16"
   points="386,2159 0,2205 0,2075 "
   id="polygon121" />
    <polygon
   class="fil16"
   points="0,2280 516,2238 1266,2150 1924,2133 2054,2092 2460,2289 2934,2385 2859,2444 2494,2435 2054,2263 1840,2255 1597,2272 1136,2272 0,2427 "
   id="polygon122" />
    <polygon
   class="fil16"
   points="5088,1710 5055,1832 4870,1815 4577,1806 4552,1702 4388,1685 4187,1630 4145,1806 4070,1806 4095,1555 4552,1563 4707,1538 4682,1702 "
   id="polygon123" />
    <polygon
   class="fil16"
   points="5889,2385 5834,2238 5818,2079 5918,2041 5906,2234 5969,2121 6002,2209 6002,2431 "
   id="polygon124" />
    <polygon
   class="fil16"
   points="5331,2163 5419,2209 5482,2071 5394,1978 "
   id="polygon125" />
    <polygon
   class="fil16"
   points="5637,3399 5625,3118 5470,3139 5512,3399 "
   id="polygon126" />
    <polygon
   class="fil16"
   points="6606,2724 6082,1006 5985,817 5508,863 5470,796 6568,608 7130,474 6614,780 8035,4690 7939,4707 7280,2846 6518,692 6098,729 6166,968 6585,2268 6778,2821 6778,3030 6824,2951 6870,3056 6870,3303 6907,3219 6958,3362 6966,3621 7012,3496 7063,3638 7063,3869 7109,3781 7138,3898 7159,4267 7213,4087 7272,4229 7280,4581 7348,4393 7377,4535 7348,4879 7301,4870 7004,3982 "
   id="polygon127" />
    <polygon
   class="fil16"
   points="7197,721 7167,570 7092,386 7050,692 7117,847 7222,796 "
   id="polygon128" />
    <polygon
   class="fil16"
   points="7616,1857 7624,1580 7557,1521 7507,1295 7444,1253 7406,1086 7339,1056 7318,884 7251,809 7234,1027 7176,1044 7565,1941 7746,1836 "
   id="polygon129" />
    <polygon
   class="fil16"
   points="7783,2188 7758,1978 7708,1911 7700,2045 7624,2066 8035,3114 8110,3093 8081,2754 7985,2724 7955,2448 7871,2439 7863,2171 "
   id="polygon130" />
    <polygon
   class="fil16"
   points="8425,3860 8387,3496 8328,3353 8270,3533 8253,3152 8194,3076 8177,3257 8119,3278 8597,4476 8643,4451 8643,4124 8605,3990 8538,4137 8509,3818 8462,3688 "
   id="polygon131" />
    <polygon
   class="fil16"
   points="9137,5621 9100,5185 9053,5067 9003,5252 8986,4937 8919,4766 8852,4954 8844,4556 8739,4363 8701,4581 8651,4602 9091,5671 9577,5508 "
   id="polygon132" />
    <polygon
   class="fil16"
   points="9871,7293 9280,5822 9871,5470 9196,5793 9812,7377 10558,7054 9938,5633 10089,6119 10470,7033 "
   id="polygon133" />
    <polygon
   class="fil16"
   points="7524,319 7356,377 7134,381 7322,348 7557,251 7704,557 7477,666 7637,549 "
   id="polygon134" />
    <polygon
   class="fil16"
   points="7679,666 7733,759 7754,855 7809,939 7825,1031 8001,1425 8102,1593 8010,1685 8194,1610 7733,645 "
   id="polygon135" />
    <polygon
   class="fil16"
   points="8412,2318 8169,1777 8245,1739 8718,2796 8613,2900 8613,2775 "
   id="polygon136" />
    <polygon
   class="fil16"
   points="9301,4141 8835,3085 8752,3106 9028,3743 9204,4074 9204,4187 "
   id="polygon137" />
    <polygon
   class="fil16"
   points="9255,4267 9745,5382 9795,5256 9426,4430 9368,4393 "
   id="polygon138" />
    <polygon
   class="fil16"
   points="10001,5361 10864,7234 9955,7469 10726,7117 "
   id="polygon139" />
    <polygon
   class="fil16"
   points="12549,7985 12394,8245 12147,8395 11870,8475 4870,9343 4682,9309 4594,9221 4594,9121 4669,8965 4833,8907 4627,8915 3915,4225 3793,4292 4497,9204 4652,9359 4921,9422 11665,8597 12163,8492 12474,8286 12645,7976 12645,7545 12532,7117 8743,63 8613,0 7385,285 5331,683 5365,725 7410,319 8630,63 8727,138 12448,7151 12557,7616 "
   id="polygon140" />
    <polygon
   class="fil16"
   points="12490,7230 12461,7092 5055,8852 "
   id="polygon141" />
    <polygon
   class="fil16"
   points="5399,7645 5994,7624 6530,7607 6002,7679 5742,7679 "
   id="polygon142" />
    <polygon
   class="fil16"
   points="7934,7310 7473,7436 6874,7498 7536,7373 "
   id="polygon143" />
    <polygon
   class="fil16"
   points="5625,7209 5235,7280 5252,7209 "
   id="polygon144" />
    <polygon
   class="fil16"
   points="5570,6463 5080,6555 5080,6455 "
   id="polygon145" />
    <polygon
   class="fil16"
   points="6249,6384 5759,6463 5759,6384 "
   id="polygon146" />
    <polygon
   class="fil16"
   points="6920,6312 6484,6384 6476,6329 "
   id="polygon147" />
    <polygon
   class="fil16"
   points="6212,6836 5868,6937 5885,6866 "
   id="polygon148" />
    <polygon
   class="fil16"
   points="6295,7172 5977,7280 5969,7209 "
   id="polygon149" />
    <polygon
   class="fil16"
   points="7000,6656 6601,6765 6618,6702 "
   id="polygon150" />
    <polygon
   class="fil16"
   points="7046,7092 6702,7243 6702,7163 "
   id="polygon151" />
    <polygon
   class="fil16"
   points="7172,4896 6790,5021 6819,4942 "
   id="polygon152" />
    <polygon
   class="fil16"
   points="7234,5239 6945,5378 6954,5302 "
   id="polygon153" />
    <polygon
   class="fil16"
   points="7352,5637 7029,5746 7037,5684 "
   id="polygon154" />
    <polygon
   class="fil16"
   points="7482,6057 7155,6203 7163,6128 "
   id="polygon155" />
    <polygon
   class="fil16"
   points="7654,6484 7310,6635 7318,6555 "
   id="polygon156" />
    <polygon
   class="fil16"
   points="7788,6891 7419,7029 7444,6945 "
   id="polygon157" />
    <polygon
   class="fil16"
   points="7788,4770 7482,4887 7452,4824 "
   id="polygon158" />
    <polygon
   class="fil16"
   points="7897,5139 7616,5269 7616,5185 "
   id="polygon159" />
    <polygon
   class="fil16"
   points="7989,5474 7725,5604 7716,5541 "
   id="polygon160" />
    <polygon
   class="fil16"
   points="8169,5985 7880,6103 7880,6040 "
   id="polygon161" />
    <polygon
   class="fil16"
   points="8312,6346 8022,6501 8006,6421 "
   id="polygon162" />
    <polygon
   class="fil16"
   points="8450,6710 8140,6874 8140,6782 "
   id="polygon163" />
    <polygon
   class="fil16"
   points="8605,7134 8278,7264 8278,7180 "
   id="polygon164" />
    <polygon
   class="fil16"
   points="5260,5176 4854,5222 4845,5176 "
   id="polygon165" />
    <polygon
   class="fil16"
   points="5009,5520 5260,5487 4946,5474 "
   id="polygon166" />
    <polygon
   class="fil16"
   points="5151,5977 5378,5910 4979,5922 5034,5985 "
   id="polygon167" />
    <polygon
   class="fil16"
   points="5977,5457 5549,5528 5587,5457 "
   id="polygon168" />
    <polygon
   class="fil16"
   points="5109,4518 4824,4569 4694,4518 "
   id="polygon169" />
    <polygon
   class="fil16"
   points="5445,4120 5264,4120 5290,4078 5663,4078 "
   id="polygon170" />
    <polygon
   class="fil16"
   points="6312,4103 5948,4162 5981,4120 "
   id="polygon171" />
    <polygon
   class="fil16"
   points="6182,3772 5881,3860 5906,3789 "
   id="polygon172" />
    <polygon
   class="fil16"
   points="6891,3990 6555,4041 6534,3990 "
   id="polygon173" />
    <polygon
   class="fil16"
   points="6803,3714 6425,3802 6476,3747 "
   id="polygon174" />
    <polygon
   class="fil16"
   points="6694,3445 6379,3533 6371,3470 "
   id="polygon175" />
    <polygon
   class="fil16"
   points="6597,3185 6304,3290 6346,3219 "
   id="polygon176" />
    <polygon
   class="fil16"
   points="6321,2406 6069,2486 6078,2406 "
   id="polygon177" />
    <polygon
   class="fil16"
   points="6199,2096 6027,2138 5964,2096 "
   id="polygon178" />
    <polygon
   class="fil16"
   points="5931,5243 5419,5298 5411,5227 6371,5105 6811,5030 6778,5088 "
   id="polygon179" />
    <polygon
   class="fil16"
   points="7729,4309 7364,4380 7322,4317 "
   id="polygon180" />
    <polygon
   class="fil16"
   points="7574,4015 7297,4095 7218,4049 "
   id="polygon181" />
    <polygon
   class="fil16"
   points="7469,3722 7314,3781 7151,3739 "
   id="polygon182" />
    <polygon
   class="fil16"
   points="9422,4937 9062,5126 9058,5055 "
   id="polygon183" />
    <polygon
   class="fil16"
   points="9313,4623 8928,4803 8924,4732 "
   id="polygon184" />
    <polygon
   class="fil16"
   points="9158,4275 8760,4464 8747,4380 "
   id="polygon185" />
    <polygon
   class="fil16"
   points="8965,3923 8592,4057 8622,3994 "
   id="polygon186" />
    <polygon
   class="fil16"
   points="8747,3613 8488,3764 8458,3705 "
   id="polygon187" />
   </g>
  </g>
 </g></g><g
       style="fill:none"
       id="g2"
       transform="matrix(0.18200259,0,0,0.18200259,215.68249,47.59404)"><g
         mask="url(#mask0)"
         id="g6"><path
           d="M 96.4614,10.7962 75.8569,0.875542 C 73.4719,-0.272773 70.6217,0.211611 68.75,2.08333 L 1.29858,63.5832 c -1.814273,1.6541 -1.812187,4.5105 0.0045,6.162 l 5.50964,5.0088 c 1.48521,1.3502 3.72198,1.4496 5.32108,0.2365 L 93.3609,13.3699 C 96.086,11.3026 100,13.2462 100,16.6667 v -0.2392 c 0,-2.401 -1.3754,-4.5897 -3.5386,-5.6313 z"
           fill="#0065a9"
           id="path2" /><g
           filter="url(#filter0_d)"
           id="g3"><path
             d="m 96.4614,89.2038 -20.6045,9.9207 c -2.385,1.1485 -5.2352,0.6639 -7.1069,-1.2078 L 1.29858,36.4169 c -1.814273,-1.6542 -1.812187,-4.5106 0.0045,-6.1621 L 6.81272,25.246 C 8.29793,23.8958 10.5347,23.7964 12.1338,25.0095 L 93.3609,86.6301 C 96.086,88.6974 100,86.7538 100,83.3334 v 0.2392 c 0,2.4009 -1.3754,4.5896 -3.5386,5.6312 z"
             fill="#007acc"
             id="path3" /></g><g
           filter="url(#filter1_d)"
           id="g4"><path
             d="M 75.8578,99.1263 C 73.4721,100.274 70.6219,99.7885 68.75,97.9166 71.0564,100.223 75,98.5895 75,95.3278 V 4.67213 C 75,1.41039 71.0564,-0.223106 68.75,2.08329 70.6219,0.211402 73.4721,-0.273666 75.8578,0.873633 L 96.4587,10.7807 C 98.6234,11.8217 100,14.0112 100,16.4132 v 67.1739 c 0,2.402 -1.3766,4.5915 -3.5414,5.6325 z"
             fill="#1f9cf0"
             id="path4" /></g><g
           style="mix-blend-mode:overlay"
           opacity="0.25"
           id="g5"><path
             fill-rule="evenodd"
             clip-rule="evenodd"
             d="m 70.8511,99.3171 c 1.575,0.6135 3.371,0.5742 4.9606,-0.1907 L 96.4,89.2197 c 2.1634,-1.041 3.5392,-3.2305 3.5392,-5.6326 V 16.4133 c 0,-2.4021 -1.3757,-4.5916 -3.5391,-5.6326 L 75.8117,0.873695 C 73.7255,-0.13019 71.2838,0.115699 69.4527,1.44688 69.1912,1.63705 68.942,1.84937 68.7082,2.08335 L 29.2943,38.0414 12.1264,25.0096 C 10.5283,23.7964 8.29285,23.8959 6.80855,25.246 l -5.5063,5.0088 c -1.815584,1.6516 -1.817665,4.5079 -0.0045,6.1621 L 16.1863,50 1.29775,63.5832 c -1.813165,1.6542 -1.811084,4.5105 0.0045,6.162 l 5.5063,5.0088 c 1.4843,1.3502 3.71975,1.4496 5.31785,0.2365 L 29.2943,61.9586 68.7082,97.9167 c 0.6235,0.6238 1.3556,1.0937 2.1429,1.4004 z M 74.9544,27.2989 45.0483,50 74.9544,72.7012 Z"
             fill="url(#paint0_linear)"
             id="path5"
             style="fill:url(#linearGradient398)" /></g></g></g><text
       xml:space="preserve"
       style="font-size:10.5833px;line-height:1.25;font-family:sans-serif;stroke-width:0.264583"
       x="213.42381"
       y="40.89151"
       id="text2"><tspan
         sodipodi:role="line"
         id="tspan2"
         style="font-style:normal;font-variant:normal;font-weight:normal;font-stretch:normal;font-family:Helvetica;-inkscape-font-specification:Helvetica;stroke-width:0.264583"
         x="213.42381"
         y="40.89151">fe.ds</tspan></text><text
       xml:space="preserve"
       style="font-size:4.93889px;line-height:1.25;font-family:Helvetica;-inkscape-font-specification:'Helvetica Bold';stroke-width:0.264583;font-weight:bold;font-style:normal;font-stretch:normal;font-variant:normal"
       x="224.92661"
       y="77.239517"
       id="text3"><tspan
         sodipodi:role="line"
         id="tspan3"
         style="font-size:4.93889px;text-align:center;text-anchor:middle;fill:#808080;fill-opacity:1;stroke-width:0.264583;-inkscape-font-specification:'Helvetica Bold';font-family:Helvetica;font-weight:bold;font-style:normal;font-stretch:normal;font-variant:normal"
         x="224.92661"
         y="77.239517">(Also, VSCode causes</tspan><tspan
         sodipodi:role="line"
         style="font-size:4.93889px;text-align:center;text-anchor:middle;fill:#808080;fill-opacity:1;stroke-width:0.264583;-inkscape-font-specification:'Helvetica Bold';font-family:Helvetica;font-weight:bold;font-style:normal;font-stretch:normal;font-variant:normal"
         x="224.92661"
         y="83.413132"
         id="tspan4">trouble on the server)</tspan></text><text
       xml:space="preserve"
       style="font-size:4.93889px;line-height:1.25;font-family:Helvetica;-inkscape-font-specification:'Helvetica Bold';stroke-width:0.264583;font-weight:bold;font-style:normal;font-stretch:normal;font-variant:normal"
       x="133.14958"
       y="46.059658"
       id="text6"><tspan
         sodipodi:role="line"
         style="font-size:4.93889px;text-align:center;text-anchor:middle;fill:#808080;fill-opacity:1;stroke-width:0.264583;-inkscape-font-specification:'Helvetica Bold';font-family:Helvetica;font-weight:bold;font-style:normal;font-stretch:normal;font-variant:normal"
         x="133.14958"
         y="46.059658"
         id="tspan6">Every keystroke goes over the network...</tspan></text><path
       style="font-variation-settings:normal;fill:none;fill-opacity:1;stroke:#808080;stroke-width:0.75;stroke-linecap:butt;stroke-linejoin:miter;stroke-miterlimit:4;stroke-dasharray:none;stroke-dashoffset:0;stroke-opacity:1;marker-end:url(#ConcaveTriangle);stop-color:#000000"
       d="M 74.011514,52.022431 H 189.11354"
       id="path7" /><path
       style="font-variation-settings:normal;fill:none;fill-opacity:1;stroke:#808080;stroke-width:0.75;stroke-linecap:butt;stroke-linejoin:miter;stroke-miterlimit:4;stroke-dasharray:none;stroke-dashoffset:0;stroke-opacity:1;marker-end:url(#ConcaveTriangle);stop-color:#000000"
       d="M 192.26354,57.314098 H 77.161514"
       id="path9" /><g
       style="clip-rule:evenodd;fill-rule:evenodd;image-rendering:optimizeQuality;shape-rendering:geometricPrecision;text-rendering:geometricPrecision"
       id="g377"
       transform="matrix(0.00268661,0,0,0.00268661,32.521322,101.45294)"><g
         id="g376"
         inkscape:label="__x0023_Layer 1"
         inkscape:groupmode="layer">
  <metadata
   id="metadata9" />
  <g
   id="g375">
   <g
   id="g374">
    <polygon
   class="fil0"
   points="4950,9385 12126,8450 12381,8312 12570,8031 12616,7725 12570,7377 12453,7046 8739,147 8597,4 8106,122 6937,377 4904,801 3362,1127 4556,9154 4720,9364 "
   id="polygon188" />
    <polygon
   class="fil1"
   points="0,2372 0,734 1148,1056 2259,1107 2754,1039 4070,822 5005,1094 5608,1614 5625,2050 5403,1874 5248,1672 4887,1366 4388,1283 4284,1329 4099,1438 3709,1563 3563,1731 3466,2674 2305,4506 1995,4556 1752,4640 729,5051 0,5432 0,3579 1274,3240 1723,3072 2850,2439 2435,2381 2062,2205 1060,2217 "
   id="polygon189" />
    <polygon
   class="fil2"
   points="5218,2263 5616,2771 5801,3144 5382,3123 4946,3190 4992,3366 5637,3395 6052,3424 6124,3600 6006,3688 5440,3747 4946,3785 4447,3948 3844,4263 3026,4485 2171,4556 1936,4556 1685,4573 1354,4673 889,4984 654,5005 0,5273 0,3617 1693,3173 3525,2226 4246,2146 "
   id="polygon190" />
    <polygon
   class="fil2"
   points="4116,1320 4313,1203 4632,1283 4917,1291 5063,1534 5336,1786 5587,2033 5839,2079 5822,1739 4896,910 3437,834 2045,1182 1215,1211 0,918 0,2050 440,2100 1169,1983 1957,1974 2532,2263 3018,2343 3554,2050 3584,1718 3755,1505 3806,1320 "
   id="polygon191" />
    <polygon
   class="fil3"
   points="3504,2519 3223,2859 3542,2850 3299,3026 2921,3131 2561,3336 2523,3395 2938,3357 3144,3336 2833,3542 3253,3462 3659,3328 3961,3026 4158,2850 4506,2695 4946,2636 5176,2557 4401,2020 3747,2058 2766,2498 1819,3173 1832,3705 2016,3764 2083,3248 2444,3114 2980,2762 "
   id="polygon192" />
    <polygon
   class="fil3"
   points="4849,2724 4313,2955 4166,2976 3982,3160 3814,3357 3688,3403 3076,3483 2377,3559 2200,3726 1861,3676 742,3366 0,3571 0,4933 771,4690 771,4409 633,4196 499,4087 411,3940 411,3823 1111,4078 1274,4468 1442,4514 2033,4351 2863,4388 3466,4309 3961,4154 4644,3864 5227,3659 5809,3659 6044,3630 6124,3559 6065,3424 5101,3403 4778,3403 4460,3559 4225,3571 4284,3475 4749,3181 5235,3056 5549,3072 6308,3190 6413,3152 6501,3056 6463,2947 5939,2557 5440,2351 5176,2372 "
   id="polygon193" />
    <polygon
   class="fil3"
   points="4757,1773 4598,1811 3957,1819 3617,1790 3160,1601 2842,1538 2951,1459 3185,1417 3362,1337 3617,1555 3659,1475 3722,1153 3940,1232 4170,1211 4334,1090 4556,1203 4749,1249 4950,1216 5080,1467 5352,1651 5503,1878 5705,2045 5855,2092 5914,2020 5834,1685 5927,1685 6002,1614 5705,1073 4933,511 3714,536 3009,897 2309,1161 1169,1169 0,809 0,1073 289,1161 738,1211 1018,1329 1060,1467 0,1413 0,1790 423,1811 1065,1765 1421,1827 1911,1907 1844,1601 1526,1425 1861,1337 2079,1379 2125,1618 2247,1651 2326,1957 2808,2255 3240,2221 3810,1949 4179,1966 4686,1957 4967,1798 "
   id="polygon194" />
    <polygon
   class="fil4"
   points="5206,3525 5495,3609 5692,3579 5881,3626 6086,3617 6132,3554 6132,3466 5591,3403 5134,3387 5093,3475 "
   id="polygon195" />
    <polygon
   class="fil4"
   points="4590,3722 4673,3756 4824,3655 4787,3571 4657,3588 "
   id="polygon196" />
    <polygon
   class="fil4"
   points="4414,3890 4057,3952 3491,4279 2913,4242 2800,4074 3097,3915 3571,3814 3994,3848 4514,3814 "
   id="polygon197" />
    <polygon
   class="fil4"
   points="5709,1471 5851,1622 5960,1668 6002,1605 5843,1316 5700,1073 5189,562 4694,495 4187,553 3688,591 2863,960 2213,1136 1379,1127 0,754 0,1035 486,1102 893,1211 1195,1324 1287,1324 1714,1270 2175,1270 2745,1203 3257,1035 3613,859 3697,914 3688,972 3584,1102 3441,1216 3563,1232 3688,1127 3911,1073 4116,1102 4359,1035 4703,1174 4992,1203 5134,1446 5357,1593 5516,1857 5709,2016 5889,2071 5897,1987 5805,1706 5554,1446 5181,981 5030,842 5168,842 5302,1019 5600,1216 "
   id="polygon198" />
    <polygon
   class="fil4"
   points="0,4137 197,4342 457,4309 503,4225 373,3932 373,3831 570,3776 1148,4015 1304,4015 1446,3831 1605,3885 1781,4053 1886,4020 1949,3969 1978,3533 1987,3223 2087,3114 2397,3076 2938,2703 3408,2498 3621,2276 3781,2125 3806,2163 3676,2414 3688,2511 3873,2481 4238,2574 4506,2557 4770,2594 5030,2557 5281,2397 5424,2406 5616,2527 5868,2666 5508,2574 5227,2594 4954,2674 4397,2909 4581,2900 4443,3068 4489,3169 4686,3169 5105,3047 5264,3014 5340,2976 5235,2842 5382,2854 5684,2976 6216,3106 6430,3144 6497,3060 6438,2930 6409,2796 5918,2460 5411,2230 5260,2184 5243,2016 5160,1895 4967,1798 4854,1802 4573,1882 4200,1957 3651,1882 3219,1995 3219,2087 3332,2171 2863,2431 2372,2724 1593,3144 0,3596 "
   id="polygon199" />
    <polygon
   class="fil5"
   points="5302,3403 5168,3441 5357,3487 5516,3517 5692,3517 5851,3579 6119,3563 6132,3479 6065,3403 5629,3403 "
   id="polygon200" />
    <polygon
   class="fil5"
   points="1970,3123 2305,3009 2791,2636 3076,2460 3517,2314 3760,2100 3864,2117 3735,2385 3776,2469 3973,2473 4263,2544 4535,2481 5160,2397 5311,2305 5424,2305 5646,2498 5981,2636 6207,2771 5449,2553 5181,2557 4778,2771 4598,2863 4879,2800 5243,2741 5508,2871 5998,2984 6337,3085 6484,3076 6497,2955 6400,2880 6384,2750 6195,2553 5440,2192 5281,2171 5172,2117 5172,1920 4937,1836 4665,1882 4703,2004 3844,1957 3500,2079 2863,2444 1932,2955 1530,3152 0,3588 0,3839 222,4112 411,4137 319,3869 352,3684 1262,3936 1438,3512 1538,3433 1555,3722 1781,3990 1895,3969 1941,3571 1903,3282 "
   id="polygon201" />
    <polygon
   class="fil5"
   points="3621,557 3181,813 2536,1060 2003,1127 1195,1111 0,759 0,943 440,1031 805,1140 1174,1287 1362,1278 1945,1216 2615,1165 2838,1077 3198,943 3613,713 3730,713 3906,847 4154,893 4623,943 4958,1056 5415,1589 5646,1886 5763,2004 5902,2075 5902,2012 5725,1660 5399,1228 5055,847 4518,750 4686,641 4992,633 5151,721 5419,1056 5637,1199 5813,1534 5964,1660 6002,1605 5734,1086 5428,801 5151,503 5021,461 4418,503 3915,495 "
   id="polygon202" />
    <polygon
   class="fil6"
   points="5700,3479 5931,3479 6082,3424 5956,3391 5587,3399 5285,3424 5373,3441 "
   id="polygon203" />
    <polygon
   class="fil6"
   points="6455,2930 6513,3018 6467,3081 6249,3026 5922,2880 5508,2833 5340,2720 5168,2674 4791,2787 5231,2561 5524,2561 6161,2762 "
   id="polygon204" />
    <polygon
   class="fil6"
   points="4514,2305 4154,2213 4267,2171 4598,2163 4958,2188 5072,2163 5072,2108 5000,2029 3844,1957 3525,2050 2812,2452 1609,3127 536,3416 0,3567 0,3705 239,3638 1102,3722 1404,3391 1706,3194 1593,3680 1836,3957 1844,3609 1827,3211 1945,3047 2393,2880 2976,2452 3466,2242 3789,2037 3915,2100 3969,2234 3827,2364 3864,2418 4003,2418 4217,2481 4497,2444 4782,2364 5277,2242 5499,2297 5570,2402 5738,2506 5994,2586 6249,2762 6346,2850 6371,2720 6187,2540 5508,2213 5134,2138 5109,2188 "
   id="polygon205" />
    <polygon
   class="fil6"
   points="3123,788 2724,981 2414,1044 1672,1086 1329,1069 956,998 486,863 0,725 0,876 662,1044 1178,1253 1647,1211 2360,1165 2766,1069 3148,884 3483,708 3714,637 4032,796 4305,863 4703,926 4996,1031 5235,1308 5508,1614 5696,1890 5851,2029 5914,2020 5604,1492 5147,943 5005,822 4439,629 4686,591 5055,591 5331,847 5684,1174 5826,1450 5922,1547 5943,1492 5730,1086 5453,838 5155,503 5030,461 4615,486 4225,486 3802,478 3626,541 "
   id="polygon206" />
    <polygon
   class="fil7"
   points="6128,3475 6082,3416 5834,3420 5826,3529 5868,3592 6119,3567 "
   id="polygon207" />
    <polygon
   class="fil7"
   points="6312,3043 6497,3072 6492,2968 6249,2833 6262,2972 "
   id="polygon208" />
    <polygon
   class="fil7"
   points="6396,2859 6396,2758 6275,2657 6275,2775 "
   id="polygon209" />
    <polygon
   class="fil7"
   points="5780,1907 5889,2054 5914,1999 5776,1786 5734,1832 "
   id="polygon210" />
    <polygon
   class="fil7"
   points="5973,1639 5990,1576 5868,1404 5868,1501 "
   id="polygon211" />
    <polygon
   class="fil7"
   points="4787,1999 5009,2033 5143,2071 5105,1962 4988,1907 4787,1907 "
   id="polygon212" />
    <polygon
   class="fil8"
   points="6136,3508 5834,3517 5834,3458 6115,3450 "
   id="polygon213" />
    <polygon
   class="fil8"
   points="6505,2988 6254,2875 6262,2947 6513,3030 "
   id="polygon214" />
    <polygon
   class="fil8"
   points="6396,2750 6275,2632 6283,2712 6413,2804 "
   id="polygon215" />
    <polygon
   class="fil8"
   points="5126,2071 4904,2024 4808,2016 4778,1970 5109,2008 "
   id="polygon216" />
    <polygon
   class="fil8"
   points="5906,1953 5805,1777 5767,1815 5906,2016 "
   id="polygon217" />
    <polygon
   class="fil8"
   points="5990,1555 5881,1383 5872,1446 6019,1622 "
   id="polygon218" />
    <polygon
   class="fil9"
   points="4346,620 4233,625 4208,495 4334,503 "
   id="polygon219" />
    <polygon
   class="fil10"
   points="4334,486 4326,411 4233,377 4191,511 "
   id="polygon220" />
    <polygon
   class="fil11"
   points="4317,432 4284,365 4187,419 4254,474 "
   id="polygon221" />
    <polygon
   class="fil12"
   points="4363,650 4200,658 4200,578 4346,549 "
   id="polygon222" />
    <polygon
   class="fil12"
   points="1211,4439 1182,4258 1132,4057 1111,3961 1127,3864 1090,3739 901,3504 792,3458 763,3416 637,3362 231,3512 377,3642 377,3768 432,3864 423,3961 465,4015 528,3999 616,4108 704,4150 822,4305 897,4594 901,4887 1207,4757 "
   id="polygon223" />
    <polygon
   class="fil9"
   points="780,3454 377,3605 335,3546 721,3420 "
   id="polygon224" />
    <polygon
   class="fil9"
   points="1203,4351 901,4468 796,4246 750,4162 1107,4049 "
   id="polygon225" />
    <polygon
   class="fil9"
   points="1056,3764 847,3500 738,3500 428,3630 423,3739 641,4070 742,4082 637,3986 478,3701 520,3647 788,3542 876,3609 1048,3839 1006,3919 817,4041 1056,3952 1115,3864 "
   id="polygon226" />
    <polygon
   class="fil10"
   points="482,3642 474,3718 591,3952 428,3701 444,3626 792,3496 876,3546 1107,3852 1073,3940 918,3999 1035,3915 1048,3823 851,3554 775,3533 "
   id="polygon227" />
    <polygon
   class="fil10"
   points="1132,4103 784,4233 868,4409 1199,4296 "
   id="polygon228" />
    <polygon
   class="fil11"
   points="1182,4217 834,4355 809,4288 1161,4154 "
   id="polygon229" />
    <polygon
   class="fil11"
   points="767,3504 855,3525 1107,3864 830,3542 767,3529 478,3634 457,3701 457,3626 "
   id="polygon230" />
    <polygon
   class="fil13"
   points="511,3714 650,3978 750,4007 930,3952 1002,3902 1018,3818 834,3579 763,3567 524,3655 "
   id="polygon231" />
    <polygon
   class="fil14"
   points="524,3718 566,3672 763,3605 822,3617 981,3827 985,3890 951,3919 746,3978 666,3965 "
   id="polygon232" />
    <polygon
   class="fil0"
   points="981,3806 830,3609 746,3592 608,3651 767,3651 "
   id="polygon233" />
    <polygon
   class="fil15"
   points="1685,1157 2393,1115 2775,1031 3240,796 2653,1002 2330,1069 1345,1077 0,721 0,842 1337,1165 "
   id="polygon234" />
    <polygon
   class="fil15"
   points="4208,750 4070,645 4217,595 4196,490 3818,482 3663,520 3550,625 3802,557 3898,679 4116,788 4841,914 "
   id="polygon235" />
    <polygon
   class="fil15"
   points="5566,1019 5700,1136 5868,1404 5751,1115 5491,876 5344,713 5172,516 5067,461 4351,490 4342,574 5084,545 5160,595 5285,742 "
   id="polygon236" />
    <polygon
   class="fil15"
   points="5210,1220 5491,1538 5675,1798 5742,1895 5742,1836 5671,1672 5461,1404 5260,1157 5151,972 5076,935 4979,930 5009,981 5134,1086 "
   id="polygon237" />
    <polygon
   class="fil15"
   points="4883,2087 4921,2041 4003,1983 3860,1991 3936,2050 4196,2087 4766,2087 "
   id="polygon238" />
    <polygon
   class="fil15"
   points="4175,2272 4032,2289 3965,2351 4158,2414 4388,2406 4690,2351 4430,2347 "
   id="polygon239" />
    <polygon
   class="fil15"
   points="6187,2540 5616,2272 5491,2251 5663,2414 6136,2603 6275,2687 6283,2641 "
   id="polygon240" />
    <polygon
   class="fil15"
   points="5461,2754 5616,2791 5767,2800 6115,2871 6254,2926 6245,2842 5994,2737 5499,2620 5352,2636 "
   id="polygon241" />
    <polygon
   class="fil15"
   points="5847,3437 5960,3412 6086,3412 5994,3382 5742,3391 5520,3399 5671,3437 "
   id="polygon242" />
    <polygon
   class="fil0"
   points="7779,4472 6472,704 6191,775 7473,4543 "
   id="polygon243" />
    <polygon
   class="fil0"
   points="6073,1689 6073,1547 5885,1199 5956,868 7100,4569 6145,4682 5910,3890 6145,3655 6375,4355 6702,4355 6425,3303 6539,3093 6539,2951 6425,2859 6308,2603 6073,2368 5956,1781 "
   id="polygon244" />
    <polygon
   class="fil0"
   points="5818,4707 5654,4170 5348,4191 5491,4753 "
   id="polygon245" />
    <polygon
   class="fil0"
   points="5160,4824 5067,4569 4740,4590 4812,4870 "
   id="polygon246" />
    <polygon
   class="fil0"
   points="5373,6086 5210,5269 4858,5269 5046,6111 "
   id="polygon247" />
    <polygon
   class="fil0"
   points="6098,5738 6052,5575 5558,5549 5654,5759 "
   id="polygon248" />
    <polygon
   class="fil0"
   points="7570,5855 7264,4963 6891,5059 7151,5948 "
   id="polygon249" />
    <polygon
   class="fil0"
   points="8177,5596 7871,4803 7498,4942 7851,5713 "
   id="polygon250" />
    <polygon
   class="fil0"
   points="5767,7515 5512,6555 5185,6581 5302,7490 "
   id="polygon251" />
    <polygon
   class="fil0"
   points="6492,7423 6212,6484 5793,6555 6119,7444 "
   id="polygon252" />
    <polygon
   class="fil0"
   points="7264,7306 6962,6392 6564,6463 6819,7377 "
   id="polygon253" />
    <polygon
   class="fil0"
   points="7943,7071 7570,6111 7243,6228 7545,7163 "
   id="polygon254" />
    <polygon
   class="fil0"
   points="8856,7306 8341,6019 8014,6136 8408,7398 "
   id="polygon255" />
    <polygon
   class="fil0"
   points="6589,7607 6098,7679 5348,7633 5466,7867 6425,7842 6681,7796 "
   id="polygon256" />
    <polygon
   class="fil0"
   points="8060,7377 7335,7490 6773,7586 6891,7750 7310,7750 8152,7586 "
   id="polygon257" />
    <polygon
   class="fil0"
   points="7545,377 7125,402 7218,637 7616,520 "
   id="polygon258" />
    <polygon
   class="fil0"
   points="7989,1501 7662,683 7335,801 7662,1597 "
   id="polygon259" />
    <polygon
   class="fil0"
   points="8550,2674 8106,1760 7779,1945 8177,2766 "
   id="polygon260" />
    <polygon
   class="fil0"
   points="9112,4007 8622,2951 8295,3068 8693,4124 "
   id="polygon261" />
    <polygon
   class="fil0"
   points="9577,5151 9204,4334 8831,4451 9250,5294 "
   id="polygon262" />
    <polygon
   class="fil0"
   points="12151,6928 8643,193 8316,193 7754,377 8525,918 "
   id="polygon263" />
    <polygon
   class="fil14"
   points="4296,4334 4531,3982 5093,4007 5675,3864 6027,3676 5491,3772 4787,3793 4296,4028 3898,4355 "
   id="polygon264" />
    <polygon
   class="fil14"
   points="4694,9292 4883,9385 12034,8475 12335,8358 12595,8006 12595,7540 12478,7163 5046,8894 4669,9083 "
   id="polygon265" />
    <polygon
   class="fil14"
   points="4367,4426 4346,4145 4225,4263 4414,5294 4556,5294 4556,4917 4648,4543 "
   id="polygon266" />
    <polygon
   class="fil14"
   points="9649,7423 9766,7352 6916,612 "
   id="polygon267" />
    <polygon
   class="fil14"
   points="9883,7163 10445,6954 9883,5596 9439,5922 10256,6907 "
   id="polygon268" />
    <polygon
   class="fil14"
   points="4623,6601 4975,6601 4833,6275 4648,5457 4485,5642 "
   id="polygon269" />
    <polygon
   class="fil14"
   points="4929,8567 5256,8592 7100,8077 9020,7633 8714,7444 7360,7867 5512,7985 5114,8333 4929,6882 4720,7000 "
   id="polygon270" />
    <polygon
   class="fil14"
   points="6212,6136 7197,5994 8177,5784 7989,5969 6819,6228 5491,6463 4883,6438 5093,6203 "
   id="polygon271" />
    <polygon
   class="fil14"
   points="5864,4896 6773,4732 7662,4543 7851,4732 6891,4963 6702,5080 5654,5222 5046,5248 4740,5197 4929,4942 "
   id="polygon272" />
    <polygon
   class="fil16"
   points="8542,3282 8442,3382 8383,3336 "
   id="polygon273" />
    <polygon
   class="fil16"
   points="4770,6610 4950,6601 4845,6534 5013,6145 4950,6090 4942,5922 4791,6187 4791,6061 4921,5763 4887,5512 4740,5797 4720,5667 4845,5403 4791,5319 4782,5193 4623,5575 "
   id="polygon274" />
    <polygon
   class="fil16"
   points="5193,7054 5088,6451 4921,6874 4845,6907 5101,8416 5818,8416 6430,8282 5763,8353 5206,8353 5407,7909 6090,7909 6610,7838 5956,7867 5386,7867 5344,7666 5101,7985 5130,7846 5290,7486 5235,7213 5034,7553 5034,7381 "
   id="polygon275" />
    <polygon
   class="fil16"
   points="5331,5520 5407,5533 5331,5361 "
   id="polygon276" />
    <polygon
   class="fil16"
   points="5428,5902 5491,5914 5491,6430 5575,6442 5533,6048 5616,5734 5554,5533 5491,5692 5428,5667 "
   id="polygon277" />
    <polygon
   class="fil16"
   points="5679,7042 5805,6643 5755,6400 5637,6706 "
   id="polygon278" />
    <polygon
   class="fil16"
   points="5914,7075 5872,7000 5847,6853 5713,7109 5742,7285 5805,7498 5805,7624 5985,7624 6019,7444 5956,7234 5860,7423 5839,7264 "
   id="polygon279" />
    <polygon
   class="fil16"
   points="6145,5755 6157,6006 5763,6069 6262,6040 "
   id="polygon280" />
    <polygon
   class="fil16"
   points="6451,6979 6484,7172 6534,7222 6597,7603 6660,7679 6727,8215 6778,8207 6882,7783 6840,7721 6811,7540 6727,7762 6694,7645 6757,7373 6736,7318 6702,7130 6597,7373 6576,7159 6652,6874 6597,6715 6484,6949 6484,6790 6526,6451 6472,6316 6333,6610 6354,6798 6417,6840 "
   id="polygon281" />
    <polygon
   class="fil16"
   points="7980,7616 7276,7771 6832,7859 6840,7762 7431,7700 "
   id="polygon282" />
    <polygon
   class="fil16"
   points="7423,6937 7486,7222 7465,7381 7306,7415 7306,7285 7243,7075 7188,7075 7180,6840 7075,6581 7033,6354 7146,6124 7188,6325 7201,6832 7297,6589 7360,6790 7306,7159 7339,7222 "
   id="polygon283" />
    <polygon
   class="fil16"
   points="7000,5457 6945,5428 6937,5331 6819,5554 6819,5403 6874,5118 6832,5026 6832,4921 6778,4950 6736,5235 6652,5248 6945,6270 7042,6270 7125,5868 7063,5826 7033,5721 6924,5935 6924,5776 "
   id="polygon284" />
    <polygon
   class="fil16"
   points="8182,7561 8236,7817 6937,8152 9141,7666 8563,6103 8467,6115 9016,7637 8932,7679 8320,7817 8341,7444 8257,7264 8182,7444 8194,7012 8119,6819 8043,7054 8064,6622 8001,6442 7951,6727 7939,6228 7867,6061 7813,6304 7758,6291 7758,6430 7855,6534 7897,6736 7909,6853 7980,6949 8064,7285 "
   id="polygon285" />
    <polygon
   class="fil16"
   points="8731,7415 8307,7561 8307,7477 "
   id="polygon286" />
    <polygon
   class="fil16"
   points="7695,5554 7645,5742 7674,5340 7603,5193 7528,5394 7515,4950 7452,4824 7381,5172 7444,5277 7708,6136 7758,5692 "
   id="polygon287" />
    <polygon
   class="fil16"
   points="8467,5902 8119,4937 8064,4929 7993,4812 8370,5935 "
   id="polygon288" />
    <polygon
   class="fil16"
   points="4409,4489 4585,4497 4489,4422 4606,4095 4979,4036 4636,4003 4757,3856 4569,3898 4351,4028 "
   id="polygon289" />
    <polygon
   class="fil16"
   points="4740,4879 4694,4736 4682,4518 4497,4908 4539,5327 4581,5315 "
   id="polygon290" />
    <polygon
   class="fil16"
   points="4120,4045 3651,4288 2984,4455 2599,4497 2121,4464 1832,4535 1245,4774 1253,4514 1207,4242 1136,4061 859,4196 1111,4141 1174,4296 1186,4418 880,4535 884,4648 1186,4552 1186,4661 893,4761 876,4925 863,4967 4,5378 4,5478 771,5114 834,5143 1127,5038 1211,4912 1941,4636 2385,4602 2888,4573 3282,4502 3764,4359 4288,4078 4678,3919 4979,3932 5051,4061 5088,4502 5155,4548 5197,4732 5239,4908 5231,5189 5331,5189 5449,4849 5365,4648 5298,4393 5264,4091 5151,4367 5139,4275 5218,3982 5214,3848 5658,3772 6048,3709 6149,3592 6145,3462 6052,3382 6128,3479 6103,3588 5998,3672 5637,3709 5101,3726 4694,3831 "
   id="polygon291" />
    <polygon
   class="fil16"
   points="5902,4066 5860,3982 5851,3860 5763,4112 5755,4003 5805,3730 5629,3768 5667,3932 5675,4045 5721,4066 5776,4376 5876,4740 5906,4858 5918,5181 5994,5176 6098,4803 6098,4707 6023,4548 5973,4384 5931,4187 5822,4393 5830,4292 "
   id="polygon292" />
    <polygon
   class="fil16"
   points="5038,4875 4673,4954 4694,4875 "
   id="polygon293" />
    <polygon
   class="fil16"
   points="5830,4808 5386,4908 5361,4816 "
   id="polygon294" />
    <polygon
   class="fil16"
   points="6949,4661 6019,4829 6078,4711 "
   id="polygon295" />
    <polygon
   class="fil16"
   points="6530,4011 6463,4225 6492,3873 6451,3756 6371,3898 6400,3563 6354,3491 6279,3638 6321,3374 6291,3206 6140,3202 6140,3307 6103,3382 6187,3387 6195,3525 6245,3546 6249,3785 6312,3827 6358,4061 6451,4313 6824,4309 6581,4275 6568,4066 "
   id="polygon296" />
    <polygon
   class="fil16"
   points="520,3328 633,3349 1542,3118 2423,2649 3533,2024 3844,1920 4217,1949 5021,1999 5306,2150 5491,2171 6224,2536 6430,2754 6446,2880 6551,2984 6534,3127 6438,3215 6275,3223 6044,3215 5491,3156 5193,3185 5059,3236 5059,3349 5373,3370 5977,3387 5688,3416 5038,3395 4799,3378 4418,3462 4849,3185 5424,3043 6065,3127 6321,3177 6446,3139 6476,3051 6476,2955 6157,2804 5516,2611 5181,2603 4673,2842 4254,2976 4464,2762 4761,2716 5252,2515 5470,2506 6157,2737 6379,2850 6371,2754 6187,2561 5508,2255 5210,2196 4502,2335 4271,2263 5088,2171 4992,2066 4196,2008 3844,1999 3496,2121 2586,2628 1647,3156 780,3437 662,3387 310,3521 402,3626 394,3743 633,4095 750,4095 1073,3973 1132,3877 1123,3973 1048,4041 738,4154 616,4145 377,3818 348,3663 251,3588 0,3663 0,3533 184,3483 243,3424 "
   id="polygon297" />
    <polygon
   class="fil16"
   points="754,3487 880,3521 1107,3810 1081,3722 905,3500 792,3450 704,3462 356,3596 394,3621 "
   id="polygon298" />
    <polygon
   class="fil16"
   points="863,4535 893,4736 868,4967 914,4812 914,4627 880,4443 809,4212 754,4200 708,4179 809,4346 "
   id="polygon299" />
    <polygon
   class="fil16"
   points="851,3563 1039,3818 1039,3877 998,3911 1006,3835 817,3596 759,3584 536,3667 516,3718 625,3932 482,3718 490,3651 759,3542 "
   id="polygon300" />
    <polygon
   class="fil16"
   points="763,4020 918,3961 733,4007 666,3994 713,4020 "
   id="polygon301" />
    <polygon
   class="fil16"
   points="465,3999 524,3986 549,4032 465,4036 415,3957 423,3864 444,3902 440,3978 "
   id="polygon302" />
    <polygon
   class="fil16"
   points="3823,2268 3630,2372 3315,2649 2314,3257 3290,2779 3655,2561 3743,2389 3831,2326 3994,2263 "
   id="polygon303" />
    <polygon
   class="fil16"
   points="3709,3265 3437,3416 3718,3320 3864,3257 3944,3118 4124,2980 4041,2951 3890,3039 "
   id="polygon304" />
    <polygon
   class="fil16"
   points="2372,1086 1320,1111 394,880 0,775 0,687 1044,989 1371,1060 2393,1052 2787,939 3739,482 3877,461 4170,461 4179,386 4275,360 4317,419 4242,419 4233,524 4263,587 4300,587 4334,557 4707,713 5130,792 5331,1102 5537,1224 5591,1425 5772,1622 6006,1693 5864,1727 5918,2037 5700,1647 5399,1278 5218,1086 5147,972 5046,897 4640,834 4225,721 4070,645 4200,591 4170,507 3860,507 3680,549 3324,775 2745,1019 "
   id="polygon305" />
    <polygon
   class="fil16"
   points="4372,516 4338,557 4217,524 4317,516 4326,402 4372,482 4602,474 5080,444 5202,499 5390,729 5755,1086 5943,1467 6040,1605 5977,1702 5927,1693 5977,1597 5864,1379 5709,1102 5399,801 5147,524 5034,490 "
   id="polygon306" />
    <polygon
   class="fil16"
   points="3634,1727 4024,1786 4715,1815 4007,1840 3592,1786 3315,1630 3064,1538 3265,1509 3315,1408 3412,1408 3533,1647 3688,1547 3730,1174 3827,1241 3802,1408 4095,1387 4267,1278 4292,1086 4485,1287 4862,1354 4950,1216 5009,1450 5210,1630 5315,1702 5470,1907 5675,2045 5830,2083 5478,2083 5453,1970 5323,1857 5269,2167 5227,2133 5164,1915 4942,1806 5164,1840 5122,1630 4887,1417 4632,1408 4577,1572 4476,1563 4447,1345 4284,1354 4015,1538 3802,1572 "
   id="polygon307" />
    <polygon
   class="fil16"
   points="386,2159 0,2205 0,2075 "
   id="polygon308" />
    <polygon
   class="fil16"
   points="1136,2272 0,2427 0,2280 516,2238 1266,2150 1924,2133 2054,2092 2460,2289 2934,2385 2859,2444 2494,2435 2054,2263 1840,2255 1597,2272 "
   id="polygon309" />
    <polygon
   class="fil16"
   points="4682,1702 5088,1710 5055,1832 4870,1815 4577,1806 4552,1702 4388,1685 4187,1630 4145,1806 4070,1806 4095,1555 4552,1563 4707,1538 "
   id="polygon310" />
    <polygon
   class="fil16"
   points="5906,2234 5969,2121 6002,2209 6002,2431 5889,2385 5834,2238 5818,2079 5918,2041 "
   id="polygon311" />
    <polygon
   class="fil16"
   points="5331,2163 5419,2209 5482,2071 5394,1978 "
   id="polygon312" />
    <polygon
   class="fil16"
   points="5637,3399 5625,3118 5470,3139 5512,3399 "
   id="polygon313" />
    <polygon
   class="fil16"
   points="6098,729 6166,968 6585,2268 6778,2821 6778,3030 6824,2951 6870,3056 6870,3303 6907,3219 6958,3362 6966,3621 7012,3496 7063,3638 7063,3869 7109,3781 7138,3898 7159,4267 7213,4087 7272,4229 7280,4581 7348,4393 7377,4535 7348,4879 7301,4870 7004,3982 6606,2724 6082,1006 5985,817 5508,863 5470,796 6568,608 7130,474 6614,780 8035,4690 7939,4707 7280,2846 6518,692 "
   id="polygon314" />
    <polygon
   class="fil16"
   points="7197,721 7167,570 7092,386 7050,692 7117,847 7222,796 "
   id="polygon315" />
    <polygon
   class="fil16"
   points="7746,1836 7616,1857 7624,1580 7557,1521 7507,1295 7444,1253 7406,1086 7339,1056 7318,884 7251,809 7234,1027 7176,1044 7565,1941 "
   id="polygon316" />
    <polygon
   class="fil16"
   points="7783,2188 7758,1978 7708,1911 7700,2045 7624,2066 8035,3114 8110,3093 8081,2754 7985,2724 7955,2448 7871,2439 7863,2171 "
   id="polygon317" />
    <polygon
   class="fil16"
   points="8538,4137 8509,3818 8462,3688 8425,3860 8387,3496 8328,3353 8270,3533 8253,3152 8194,3076 8177,3257 8119,3278 8597,4476 8643,4451 8643,4124 8605,3990 "
   id="polygon318" />
    <polygon
   class="fil16"
   points="9577,5508 9137,5621 9100,5185 9053,5067 9003,5252 8986,4937 8919,4766 8852,4954 8844,4556 8739,4363 8701,4581 8651,4602 9091,5671 "
   id="polygon319" />
    <polygon
   class="fil16"
   points="9196,5793 9812,7377 10558,7054 9938,5633 10089,6119 10470,7033 9871,7293 9280,5822 9871,5470 "
   id="polygon320" />
    <polygon
   class="fil16"
   points="7557,251 7704,557 7477,666 7637,549 7524,319 7356,377 7134,381 7322,348 "
   id="polygon321" />
    <polygon
   class="fil16"
   points="7754,855 7809,939 7825,1031 8001,1425 8102,1593 8010,1685 8194,1610 7733,645 7679,666 7733,759 "
   id="polygon322" />
    <polygon
   class="fil16"
   points="8412,2318 8169,1777 8245,1739 8718,2796 8613,2900 8613,2775 "
   id="polygon323" />
    <polygon
   class="fil16"
   points="9301,4141 8835,3085 8752,3106 9028,3743 9204,4074 9204,4187 "
   id="polygon324" />
    <polygon
   class="fil16"
   points="9795,5256 9426,4430 9368,4393 9255,4267 9745,5382 "
   id="polygon325" />
    <polygon
   class="fil16"
   points="10001,5361 10864,7234 9955,7469 10726,7117 "
   id="polygon326" />
    <polygon
   class="fil16"
   points="3793,4292 4497,9204 4652,9359 4921,9422 11665,8597 12163,8492 12474,8286 12645,7976 12645,7545 12532,7117 8743,63 8613,0 7385,285 5331,683 5365,725 7410,319 8630,63 8727,138 12448,7151 12557,7616 12549,7985 12394,8245 12147,8395 11870,8475 4870,9343 4682,9309 4594,9221 4594,9121 4669,8965 4833,8907 4627,8915 3915,4225 "
   id="polygon327" />
    <polygon
   class="fil16"
   points="12490,7230 12461,7092 5055,8852 "
   id="polygon328" />
    <polygon
   class="fil16"
   points="6530,7607 6002,7679 5742,7679 5399,7645 5994,7624 "
   id="polygon329" />
    <polygon
   class="fil16"
   points="7934,7310 7473,7436 6874,7498 7536,7373 "
   id="polygon330" />
    <polygon
   class="fil16"
   points="5625,7209 5235,7280 5252,7209 "
   id="polygon331" />
    <polygon
   class="fil16"
   points="5570,6463 5080,6555 5080,6455 "
   id="polygon332" />
    <polygon
   class="fil16"
   points="6249,6384 5759,6463 5759,6384 "
   id="polygon333" />
    <polygon
   class="fil16"
   points="6920,6312 6484,6384 6476,6329 "
   id="polygon334" />
    <polygon
   class="fil16"
   points="6212,6836 5868,6937 5885,6866 "
   id="polygon335" />
    <polygon
   class="fil16"
   points="6295,7172 5977,7280 5969,7209 "
   id="polygon336" />
    <polygon
   class="fil16"
   points="7000,6656 6601,6765 6618,6702 "
   id="polygon337" />
    <polygon
   class="fil16"
   points="7046,7092 6702,7243 6702,7163 "
   id="polygon338" />
    <polygon
   class="fil16"
   points="7172,4896 6790,5021 6819,4942 "
   id="polygon339" />
    <polygon
   class="fil16"
   points="7234,5239 6945,5378 6954,5302 "
   id="polygon340" />
    <polygon
   class="fil16"
   points="7352,5637 7029,5746 7037,5684 "
   id="polygon341" />
    <polygon
   class="fil16"
   points="7482,6057 7155,6203 7163,6128 "
   id="polygon342" />
    <polygon
   class="fil16"
   points="7654,6484 7310,6635 7318,6555 "
   id="polygon343" />
    <polygon
   class="fil16"
   points="7788,6891 7419,7029 7444,6945 "
   id="polygon344" />
    <polygon
   class="fil16"
   points="7788,4770 7482,4887 7452,4824 "
   id="polygon345" />
    <polygon
   class="fil16"
   points="7897,5139 7616,5269 7616,5185 "
   id="polygon346" />
    <polygon
   class="fil16"
   points="7989,5474 7725,5604 7716,5541 "
   id="polygon347" />
    <polygon
   class="fil16"
   points="8169,5985 7880,6103 7880,6040 "
   id="polygon348" />
    <polygon
   class="fil16"
   points="8312,6346 8022,6501 8006,6421 "
   id="polygon349" />
    <polygon
   class="fil16"
   points="8450,6710 8140,6874 8140,6782 "
   id="polygon350" />
    <polygon
   class="fil16"
   points="8605,7134 8278,7264 8278,7180 "
   id="polygon351" />
    <polygon
   class="fil16"
   points="5260,5176 4854,5222 4845,5176 "
   id="polygon352" />
    <polygon
   class="fil16"
   points="5009,5520 5260,5487 4946,5474 "
   id="polygon353" />
    <polygon
   class="fil16"
   points="5151,5977 5378,5910 4979,5922 5034,5985 "
   id="polygon354" />
    <polygon
   class="fil16"
   points="5977,5457 5549,5528 5587,5457 "
   id="polygon355" />
    <polygon
   class="fil16"
   points="5109,4518 4824,4569 4694,4518 "
   id="polygon356" />
    <polygon
   class="fil16"
   points="5445,4120 5264,4120 5290,4078 5663,4078 "
   id="polygon357" />
    <polygon
   class="fil16"
   points="6312,4103 5948,4162 5981,4120 "
   id="polygon358" />
    <polygon
   class="fil16"
   points="6182,3772 5881,3860 5906,3789 "
   id="polygon359" />
    <polygon
   class="fil16"
   points="6891,3990 6555,4041 6534,3990 "
   id="polygon360" />
    <polygon
   class="fil16"
   points="6803,3714 6425,3802 6476,3747 "
   id="polygon361" />
    <polygon
   class="fil16"
   points="6694,3445 6379,3533 6371,3470 "
   id="polygon362" />
    <polygon
   class="fil16"
   points="6597,3185 6304,3290 6346,3219 "
   id="polygon363" />
    <polygon
   class="fil16"
   points="6321,2406 6069,2486 6078,2406 "
   id="polygon364" />
    <polygon
   class="fil16"
   points="6199,2096 6027,2138 5964,2096 "
   id="polygon365" />
    <polygon
   class="fil16"
   points="5931,5243 5419,5298 5411,5227 6371,5105 6811,5030 6778,5088 "
   id="polygon366" />
    <polygon
   class="fil16"
   points="7729,4309 7364,4380 7322,4317 "
   id="polygon367" />
    <polygon
   class="fil16"
   points="7574,4015 7297,4095 7218,4049 "
   id="polygon368" />
    <polygon
   class="fil16"
   points="7469,3722 7314,3781 7151,3739 "
   id="polygon369" />
    <polygon
   class="fil16"
   points="9422,4937 9062,5126 9058,5055 "
   id="polygon370" />
    <polygon
   class="fil16"
   points="9313,4623 8928,4803 8924,4732 "
   id="polygon371" />
    <polygon
   class="fil16"
   points="9158,4275 8760,4464 8747,4380 "
   id="polygon372" />
    <polygon
   class="fil16"
   points="8965,3923 8592,4057 8622,3994 "
   id="polygon373" />
    <polygon
   class="fil16"
   points="8747,3613 8488,3764 8458,3705 "
   id="polygon374" />
   </g>
  </g>
 </g></g><g
       style="fill:none"
       id="g382"
       transform="matrix(0.18200259,0,0,0.18200259,58.426868,88.628959)"><g
         mask="url(#mask0)"
         id="g381"><path
           d="M 96.4614,10.7962 75.8569,0.875542 C 73.4719,-0.272773 70.6217,0.211611 68.75,2.08333 L 1.29858,63.5832 c -1.814273,1.6541 -1.812187,4.5105 0.0045,6.162 l 5.50964,5.0088 c 1.48521,1.3502 3.72198,1.4496 5.32108,0.2365 L 93.3609,13.3699 C 96.086,11.3026 100,13.2462 100,16.6667 v -0.2392 c 0,-2.401 -1.3754,-4.5897 -3.5386,-5.6313 z"
           fill="#0065a9"
           id="path377" /><g
           filter="url(#filter0_d)"
           id="g378"><path
             d="m 96.4614,89.2038 -20.6045,9.9207 c -2.385,1.1485 -5.2352,0.6639 -7.1069,-1.2078 L 1.29858,36.4169 c -1.814273,-1.6542 -1.812187,-4.5106 0.0045,-6.1621 L 6.81272,25.246 C 8.29793,23.8958 10.5347,23.7964 12.1338,25.0095 L 93.3609,86.6301 C 96.086,88.6974 100,86.7538 100,83.3334 v 0.2392 c 0,2.4009 -1.3754,4.5896 -3.5386,5.6312 z"
             fill="#007acc"
             id="path378" /></g><g
           filter="url(#filter1_d)"
           id="g379"><path
             d="M 75.8578,99.1263 C 73.4721,100.274 70.6219,99.7885 68.75,97.9166 71.0564,100.223 75,98.5895 75,95.3278 V 4.67213 C 75,1.41039 71.0564,-0.223106 68.75,2.08329 70.6219,0.211402 73.4721,-0.273666 75.8578,0.873633 L 96.4587,10.7807 C 98.6234,11.8217 100,14.0112 100,16.4132 v 67.1739 c 0,2.402 -1.3766,4.5915 -3.5414,5.6325 z"
             fill="#1f9cf0"
             id="path379" /></g><g
           style="mix-blend-mode:overlay"
           opacity="0.25"
           id="g380"><path
             fill-rule="evenodd"
             clip-rule="evenodd"
             d="m 70.8511,99.3171 c 1.575,0.6135 3.371,0.5742 4.9606,-0.1907 L 96.4,89.2197 c 2.1634,-1.041 3.5392,-3.2305 3.5392,-5.6326 V 16.4133 c 0,-2.4021 -1.3757,-4.5916 -3.5391,-5.6326 L 75.8117,0.873695 C 73.7255,-0.13019 71.2838,0.115699 69.4527,1.44688 69.1912,1.63705 68.942,1.84937 68.7082,2.08335 L 29.2943,38.0414 12.1264,25.0096 C 10.5283,23.7964 8.29285,23.8959 6.80855,25.246 l -5.5063,5.0088 c -1.815584,1.6516 -1.817665,4.5079 -0.0045,6.1621 L 16.1863,50 1.29775,63.5832 c -1.813165,1.6542 -1.811084,4.5105 0.0045,6.162 l 5.5063,5.0088 c 1.4843,1.3502 3.71975,1.4496 5.31785,0.2365 L 29.2943,61.9586 68.7082,97.9167 c 0.6235,0.6238 1.3556,1.0937 2.1429,1.4004 z M 74.9544,27.2989 45.0483,50 74.9544,72.7012 Z"
             fill="url(#paint0_linear)"
             id="path380"
             style="fill:url(#linearGradient386)" /></g></g></g><text
       xml:space="preserve"
       style="font-size:10.5833px;line-height:1.25;font-family:sans-serif;stroke-width:0.264583"
       x="213.42381"
       y="104.3915"
       id="text382"><tspan
         sodipodi:role="line"
         id="tspan382"
         style="font-style:normal;font-variant:normal;font-weight:normal;font-stretch:normal;font-family:Helvetica;-inkscape-font-specification:Helvetica;stroke-width:0.264583"
         x="213.42381"
         y="104.3915">fe.ds</tspan></text><text
       xml:space="preserve"
       style="font-size:4.93889px;line-height:1.25;font-family:Helvetica;-inkscape-font-specification:'Helvetica Bold';stroke-width:0.264583;font-weight:bold;font-style:normal;font-stretch:normal;font-variant:normal"
       x="133.14958"
       y="109.55966"
       id="text385"><tspan
         sodipodi:role="line"
         style="font-size:4.93889px;text-align:center;text-anchor:middle;fill:#808080;fill-opacity:1;stroke-width:0.264583;-inkscape-font-specification:'Helvetica Bold';font-family:Helvetica;font-weight:bold;font-style:normal;font-stretch:normal;font-variant:normal"
         x="133.14958"
         y="109.55966"
         id="tspan385">VSCode reads and writes files on the server.</tspan></text><path
       style="font-variation-settings:normal;fill:none;fill-opacity:1;stroke:#808080;stroke-width:0.75;stroke-linecap:butt;stroke-linejoin:miter;stroke-miterlimit:4;stroke-dasharray:none;stroke-dashoffset:0;stroke-opacity:1;marker-end:url(#ConcaveTriangle);stop-color:#000000"
       d="M 74.011514,115.52243 H 189.11354"
       id="path385" /><path
       style="font-variation-settings:normal;fill:none;fill-opacity:1;stroke:#808080;stroke-width:0.75;stroke-linecap:butt;stroke-linejoin:miter;stroke-miterlimit:4;stroke-dasharray:none;stroke-dashoffset:0;stroke-opacity:1;marker-end:url(#ConcaveTriangle);stop-color:#000000"
       d="M 192.26354,120.8141 H 77.161514"
       id="path386" /><g
       id="g398"
       transform="translate(-4.109556,4.7959178)"><g
         id="g387"
         transform="matrix(0.19359113,0,0,0.19359113,224.88594,103.61183)"><path
           fill="#ffffff"
           d="M 60.9579,8 H 18.2699 C 17.5685,8 17,8.5685 17,9.2698 V 86.7301 C 17,87.4315 17.5685,88 18.2698,88 h 59.6825 c 0.7013,0 1.2698,-0.5685 1.2698,-1.2698 V 26.2643 c 0,-0.7858 -0.3122,-1.5395 -0.8678,-2.0951 L 63.053,8.8678 C 62.4974,8.3122 61.7437,8 60.9579,8 Z"
           id="path1-4" /><path
           fill="#979593"
           d="M 79.1211,24.707 61.293,6.8789 C 60.7266,6.312 59.9736,6 59.1719,6 H 19 c -1.6543,0 -3,1.3457 -3,3 v 78 c 0,1.6543 1.3457,3 3,3 h 58 c 1.6543,0 3,-1.3457 3,-3 V 26.8281 C 80,26.0273 79.6875,25.2739 79.1211,24.707 Z M 60,8.4141 77.5857,26 H 61 c -0.5518,0 -1,-0.4482 -1,-1 z M 77,88 H 19 c -0.5518,0 -1,-0.4482 -1,-1 V 9 c 0,-0.5518 0.4482,-1 1,-1 h 39 v 17 c 0,1.6543 1.3457,3 3,3 h 17 v 59 c 0,0.5518 -0.4482,1 -1,1 z"
           id="path2-9" /><path
           fill="#c8c6c4"
           d="M 71,61 H 25 c -0.5523,0 -1,-0.4477 -1,-1 v 0 c 0,-0.5523 0.4477,-1 1,-1 h 46 c 0.5523,0 1,0.4477 1,1 v 0 c 0,0.5523 -0.4477,1 -1,1 z m 0,-6 H 25 c -0.5523,0 -1,-0.4477 -1,-1 v 0 c 0,-0.5523 0.4477,-1 1,-1 h 46 c 0.5523,0 1,0.4477 1,1 v 0 c 0,0.5523 -0.4477,1 -1,1 z m 0,-6 H 25 c -0.5523,0 -1,-0.4477 -1,-1 v 0 c 0,-0.5523 0.4477,-1 1,-1 h 46 c 0.5523,0 1,0.4477 1,1 v 0 c 0,0.5523 -0.4477,1 -1,1 z m 0,-6 H 25 c -0.5523,0 -1,-0.4477 -1,-1 v 0 c 0,-0.5523 0.4477,-1 1,-1 h 46 c 0.5523,0 1,0.4477 1,1 v 0 c 0,0.5523 -0.4477,1 -1,1 z m 0,24 H 25 c -0.5523,0 -1,-0.4477 -1,-1 v 0 c 0,-0.5523 0.4477,-1 1,-1 h 46 c 0.5523,0 1,0.4477 1,1 v 0 c 0,0.5523 -0.4477,1 -1,1 z"
           id="path3-3" /></g><g
         id="g394"
         transform="matrix(0.19359113,0,0,0.19359113,219.59427,105.72851)"><path
           fill="#ffffff"
           d="M 60.9579,8 H 18.2699 C 17.5685,8 17,8.5685 17,9.2698 V 86.7301 C 17,87.4315 17.5685,88 18.2698,88 h 59.6825 c 0.7013,0 1.2698,-0.5685 1.2698,-1.2698 V 26.2643 c 0,-0.7858 -0.3122,-1.5395 -0.8678,-2.0951 L 63.053,8.8678 C 62.4974,8.3122 61.7437,8 60.9579,8 Z"
           id="path392" /><path
           fill="#979593"
           d="M 79.1211,24.707 61.293,6.8789 C 60.7266,6.312 59.9736,6 59.1719,6 H 19 c -1.6543,0 -3,1.3457 -3,3 v 78 c 0,1.6543 1.3457,3 3,3 h 58 c 1.6543,0 3,-1.3457 3,-3 V 26.8281 C 80,26.0273 79.6875,25.2739 79.1211,24.707 Z M 60,8.4141 77.5857,26 H 61 c -0.5518,0 -1,-0.4482 -1,-1 z M 77,88 H 19 c -0.5518,0 -1,-0.4482 -1,-1 V 9 c 0,-0.5518 0.4482,-1 1,-1 h 39 v 17 c 0,1.6543 1.3457,3 3,3 h 17 v 59 c 0,0.5518 -0.4482,1 -1,1 z"
           id="path393" /><path
           fill="#c8c6c4"
           d="M 71,61 H 25 c -0.5523,0 -1,-0.4477 -1,-1 v 0 c 0,-0.5523 0.4477,-1 1,-1 h 46 c 0.5523,0 1,0.4477 1,1 v 0 c 0,0.5523 -0.4477,1 -1,1 z m 0,-6 H 25 c -0.5523,0 -1,-0.4477 -1,-1 v 0 c 0,-0.5523 0.4477,-1 1,-1 h 46 c 0.5523,0 1,0.4477 1,1 v 0 c 0,0.5523 -0.4477,1 -1,1 z m 0,-6 H 25 c -0.5523,0 -1,-0.4477 -1,-1 v 0 c 0,-0.5523 0.4477,-1 1,-1 h 46 c 0.5523,0 1,0.4477 1,1 v 0 c 0,0.5523 -0.4477,1 -1,1 z m 0,-6 H 25 c -0.5523,0 -1,-0.4477 -1,-1 v 0 c 0,-0.5523 0.4477,-1 1,-1 h 46 c 0.5523,0 1,0.4477 1,1 v 0 c 0,0.5523 -0.4477,1 -1,1 z m 0,24 H 25 c -0.5523,0 -1,-0.4477 -1,-1 v 0 c 0,-0.5523 0.4477,-1 1,-1 h 46 c 0.5523,0 1,0.4477 1,1 v 0 c 0,0.5523 -0.4477,1 -1,1 z"
           id="path394" /></g><g
         id="g397"
         transform="matrix(0.19359113,0,0,0.19359113,214.3026,107.84519)"><path
           fill="#ffffff"
           d="M 60.9579,8 H 18.2699 C 17.5685,8 17,8.5685 17,9.2698 V 86.7301 C 17,87.4315 17.5685,88 18.2698,88 h 59.6825 c 0.7013,0 1.2698,-0.5685 1.2698,-1.2698 V 26.2643 c 0,-0.7858 -0.3122,-1.5395 -0.8678,-2.0951 L 63.053,8.8678 C 62.4974,8.3122 61.7437,8 60.9579,8 Z"
           id="path395" /><path
           fill="#979593"
           d="M 79.1211,24.707 61.293,6.8789 C 60.7266,6.312 59.9736,6 59.1719,6 H 19 c -1.6543,0 -3,1.3457 -3,3 v 78 c 0,1.6543 1.3457,3 3,3 h 58 c 1.6543,0 3,-1.3457 3,-3 V 26.8281 C 80,26.0273 79.6875,25.2739 79.1211,24.707 Z M 60,8.4141 77.5857,26 H 61 c -0.5518,0 -1,-0.4482 -1,-1 z M 77,88 H 19 c -0.5518,0 -1,-0.4482 -1,-1 V 9 c 0,-0.5518 0.4482,-1 1,-1 h 39 v 17 c 0,1.6543 1.3457,3 3,3 h 17 v 59 c 0,0.5518 -0.4482,1 -1,1 z"
           id="path396" /><path
           fill="#c8c6c4"
           d="M 71,61 H 25 c -0.5523,0 -1,-0.4477 -1,-1 v 0 c 0,-0.5523 0.4477,-1 1,-1 h 46 c 0.5523,0 1,0.4477 1,1 v 0 c 0,0.5523 -0.4477,1 -1,1 z m 0,-6 H 25 c -0.5523,0 -1,-0.4477 -1,-1 v 0 c 0,-0.5523 0.4477,-1 1,-1 h 46 c 0.5523,0 1,0.4477 1,1 v 0 c 0,0.5523 -0.4477,1 -1,1 z m 0,-6 H 25 c -0.5523,0 -1,-0.4477 -1,-1 v 0 c 0,-0.5523 0.4477,-1 1,-1 h 46 c 0.5523,0 1,0.4477 1,1 v 0 c 0,0.5523 -0.4477,1 -1,1 z m 0,-6 H 25 c -0.5523,0 -1,-0.4477 -1,-1 v 0 c 0,-0.5523 0.4477,-1 1,-1 h 46 c 0.5523,0 1,0.4477 1,1 v 0 c 0,0.5523 -0.4477,1 -1,1 z m 0,24 H 25 c -0.5523,0 -1,-0.4477 -1,-1 v 0 c 0,-0.5523 0.4477,-1 1,-1 h 46 c 0.5523,0 1,0.4477 1,1 v 0 c 0,0.5523 -0.4477,1 -1,1 z"
           id="path397" /></g></g><path
       style="fill:none;stroke:#ff3434;stroke-width:5.35401;stroke-linecap:butt;stroke-linejoin:miter;stroke-miterlimit:4;stroke-dasharray:none;stroke-opacity:0.5"
       d="m 159.91419,50.616871 a 26.776661,26.776661 0 1 0 -53.55332,0 26.776661,26.776661 0 0 0 53.55332,0 z m -45.71311,-18.936412 37.87288,37.872825"
       id="path1" /><path
       d="m 104.5959,122.91815 c 0,0 11.24867,12.66452 13.4945,17.83774 h 9.66682 c 4.05226,-12.37159 19.79259,-41.89935 33.28904,-52.249689 2.79264,-3.59332 -4.22802,-5.077518 -9.89629,-2.69695 -8.54391,3.583569 -24.65528,30.972909 -27.66275,37.558069 -4.26707,1.12292 -8.76849,-7.19641 -8.7724,-7.19641 z"
       fill="#118811"
       id="path1-3"
       style="fill:#16b316;fill-opacity:0.5;stroke-width:0.0976445" /></g></svg>
